<?xml version="1.0" encoding="utf-8"?>
<!-- Generator: Adobe Illustrator 25.1.0, SVG Export Plug-In . SVG Version: 6.00 Build 0)  -->
<svg version="1.1" xmlns="http://www.w3.org/2000/svg" xmlns:xlink="http://www.w3.org/1999/xlink" x="0px" y="0px"
	 viewBox="0 0 1366 768" style="enable-background:new 0 0 1366 768;" xml:space="preserve">
<style type="text/css">
	.st0{fill:#EFD7AC;}
	.st1{fill:#FFFFFF;}
	.st2{fill:none;stroke:#000000;stroke-miterlimit:10;}
	.st3{opacity:0.55;fill:#B3A181;}
	.st4{opacity:0.34;fill:#FFFFFF;}
</style>
<g id="Lager_1">
	<g>
		<path class="st0" d="M461.5,623.5c-70.52,0-136.81-27.46-186.68-77.32c-49.86-49.86-77.32-116.16-77.32-186.68
			c0-70.52,27.46-136.81,77.32-186.68C324.69,122.96,390.98,95.5,461.5,95.5s136.81,27.46,186.68,77.32
			c49.86,49.86,77.32,116.16,77.32,186.68c0,70.52-27.46,136.81-77.32,186.68C598.31,596.04,532.02,623.5,461.5,623.5z"/>
		<path class="st1" d="M461.5,96c35.57,0,70.08,6.97,102.57,20.71c31.38,13.27,59.56,32.27,83.76,56.47
			c24.2,24.2,43.2,52.38,56.47,83.76C718.03,289.42,725,323.93,725,359.5s-6.97,70.08-20.71,102.57
			c-13.27,31.38-32.27,59.56-56.47,83.76c-24.2,24.2-52.38,43.2-83.76,56.47C531.58,616.03,497.07,623,461.5,623
			s-70.08-6.97-102.57-20.71c-31.38-13.27-59.56-32.27-83.76-56.47c-24.2-24.2-43.2-52.38-56.47-83.76
			C204.97,429.58,198,395.07,198,359.5s6.97-70.08,20.71-102.57c13.27-31.38,32.27-59.56,56.47-83.76
			c24.2-24.2,52.38-43.2,83.76-56.47C391.42,102.97,425.93,96,461.5,96 M461.5,95C315.42,95,197,213.42,197,359.5
			S315.42,624,461.5,624S726,505.58,726,359.5S607.58,95,461.5,95L461.5,95z"/>
	</g>
	<g>
		<path class="st1" d="M383,318.98c0.69,0.02,1.39,0.05,2.04,0.28c2.37,0.83,3.08,3.92,2.68,6.4c-1.56,9.67-12.76,14.23-22.42,15.84
			c-16.31,2.71-33.12,2.14-49.28-1.35c-7.14-1.54-14.28-3.83-20.53-7.67c-3.11-1.91-6.03-4.22-8.4-7.01
			c-3.98-4.68,2.11-4.32,5.74-4.59c19.11-1.45,38.28-2.23,57.45-2.35C361.18,318.45,372.09,318.61,383,318.98z"/>
	</g>
	<g>
		<path class="st1" d="M657.74,317.65c-0.21,7.64-1.37,16.83-8.29,20.07c-2.31,1.08-4.92,1.27-7.46,1.4
			c-23.99,1.18-48.19-2.26-70.92-9.98c-2.68-0.91-17.21-4.85-17.18-7.65c6.47-0.86,13.47-0.24,20.01-0.37
			c6.78-0.14,13.56-0.31,20.33-0.51c13.55-0.41,27.1-0.96,40.65-1.65C642.49,318.57,650.12,318.13,657.74,317.65z"/>
	</g>
	<path class="st2" d="M585.82,390.21c-54.83-24.64-118.97-27.83-175.98-8.76c-11.81,3.95-23.64,9.03-32.42,17.86"/>
	<path d="M609.97,318.56c-4.21,1.58-9.09,3.94-9.65,8.41c-0.35,2.79,1.29,5.57,3.61,7.15s5.22,2.11,8.03,2.14
		c4.56,0.05,9.43-1.32,12.24-4.91c2.82-3.58,2.55-9.65-1.34-12.02c-1.34-0.82-2.92-1.13-4.48-1.32c-4.72-0.57-9.57-0.12-14.11,1.33"
		/>
	<path d="M338.24,318.67c-4.21,1.58-9.09,3.94-9.65,8.41c-0.35,2.79,1.29,5.57,3.61,7.15s5.22,2.11,8.03,2.14
		c4.56,0.05,9.43-1.33,12.24-4.91c2.82-3.58,2.55-9.65-1.34-12.02c-1.34-0.82-2.92-1.13-4.48-1.32c-4.72-0.57-9.57-0.12-14.11,1.33"
		/>
	<path class="st3" d="M210.14,340.7c29.28,61.06,81.64,108.1,137.73,146.04c22.75,15.39,46.47,29.63,72.03,39.71
		c26.34,10.38,104.93,36.7,196.35,10.36C643.34,529,664.37,518.63,678,511c-24.21,28.85-45.64,47.95-59.71,59.36
		c-15.51,12.58-26.63,19.5-36.29,24.64c0,0-14.02,7.46-30,13c-98.23,34.03-191-4-191-4c-18.13-7.43-99.39-43.1-141-136
		c-35.18-78.54-20.48-149.87-15-172"/>
	<path class="st4" d="M505.93,135.37c47.21-0.33,94.23,19.5,126.93,53.55c3.04,3.16,6.06,6.63,7.07,10.9
		c1.01,4.27-0.72,9.49-4.84,11.01c-3.07,1.13-6.44-0.02-9.68-0.5c-21.14-3.09-39.32,23.03-60.01,17.72
		c-2.35-0.6-4.89-1.96-5.34-4.35c-0.3-1.59,0.43-3.17,1.15-4.61c5.78-11.49,12.92-23.74,10.39-36.35
		c-2.58-12.85-14.31-21.48-25.16-28.83c-18.78-12.73-39.33-26-62-24.97"/>
</g>
<g id="bryn">
	<path class="st2" d="M554.23,301.69c-1.27-8.36,0.86-17.18,5.81-24.03"/>
	<path class="st2" d="M557.73,298.66c0.04-6.39,2.14-12.76,5.91-17.92"/>
	<path class="st2" d="M562.9,297.14c0.36-8.33,3.67-16.5,9.2-22.73"/>
	<path class="st2" d="M567.46,293.09c1.82-6.44,5.97-12.2,11.5-15.97"/>
	<path class="st2" d="M573.54,292.08c1.93-4.65,4.99-8.82,8.83-12.07"/>
	<path class="st2" d="M582.11,288.98c3.33-4.78,7.72-8.82,12.76-11.73"/>
	<path class="st2" d="M595.9,284.91c3.73-2.94,7.83-5.4,12.17-7.32"/>
	<path class="st2" d="M611.7,283.34c3.92-2.06,8.04-3.74,12.29-5"/>
	<path class="st2" d="M624.04,287.02c4.45-3.66,10.58-5.19,16.23-4.06c4.56,0.92,9.79,3.45,14.32,4.5"/>
	<path class="st2" d="M658.67,289.5c3.5,0.66,6.94,1.62,10.28,2.87"/>
	<path class="st2" d="M561.02,279.18c-3.62,6.58-5.64,14.02-5.86,21.52C556.38,294.21,557.6,284.84,561.02,279.18z"/>
	<path class="st2" d="M567.22,277.7c-2.9,5.57-4.77,11.67-5.49,17.91C559.75,288.71,562.85,283.39,567.22,277.7z"/>
	<path class="st2" d="M567.6,293c-0.92-7.08,2.15-14.54,7.78-18.93"/>
	<path class="st2" d="M564.25,294.08c3.52-6.1,8.21-11.51,13.74-15.86"/>
	<path class="st2" d="M588.04,277.04c-3.4,3.33-6.25,7.22-8.43,11.45"/>
	<path class="st2" d="M593.88,284.9c2.44-3.76,3.46-9.71,7.01-12.44c-5.82,3.36-10.6,8.49-13.55,14.52"/>
	<path class="st2" d="M599.7,286.43c0.55-5.43,3.72-10.54,8.33-13.45"/>
	<path class="st2" d="M605.68,284.44c3.04-4.44,7.24-8.07,12.07-10.44"/>
	<path class="st2" d="M611.74,284.9c2.9-3.43,6.33-6.4,10.13-8.78"/>
	<path class="st2" d="M618.38,284.4c2.83-3.02,6.04-5.68,9.51-7.93"/>
	<path class="st2" d="M622.49,284.96c4.19-3.03,9.11-5.05,14.22-5.83c4.09-0.63,10.76,1.89,14.85,2.54"/>
	<path class="st2" d="M647.44,284.91c3.33,0.39,6.62,1.19,9.77,2.36"/>
	<path class="st2" d="M639.78,289.04c7.68,0.36,15.41-0.25,22.94-1.82"/>
	<path class="st2" d="M570.45,295.12c1.72-6.42,5.22-12.36,9.99-16.99"/>
	<path class="st2" d="M550.74,283.28c-1.7,5.97-1.76,12.4-0.15,18.4C549.38,296.33,549.55,288.64,550.74,283.28z"/>
	<path class="st2" d="M622.57,285.01c1.56-2.15,3.15-4.33,5.24-5.97c2.09-1.64,4.79-2.7,7.41-2.25"/>
	<path class="st2" d="M605.85,284.36c-0.07-4.63,1.77-9.26,4.99-12.59"/>
	<path class="st2" d="M609.18,283.87c1.87-3.12,4.27-5.92,7.06-8.25"/>
	<path class="st2" d="M581.78,289.05c2.11-6.2,4.9-13.13,11.02-15.47"/>
	<path class="st2" d="M566,294.6c0.98-9.47,7.04-18.27,15.55-22.56"/>
	<path class="st2" d="M570.95,293.59c2.59-6.51,6.99-12.28,12.58-16.5"/>
	<path class="st2" d="M594.89,271.26c-7.75,1.7-13.79,9.25-13.75,17.18C583.11,282.72,589.28,273.55,594.89,271.26z"/>
	<path class="st2" d="M630.61,283.38c4.97-1.41,10.14-2.14,15.31-2.17"/>
	<path class="st2" d="M634.2,286.5c7.52-2.53,15.81-2.73,23.44-0.56"/>
	<path class="st2" d="M656.12,291.05c4.37,0.95,8.67,2.25,12.83,3.91"/>
	<path class="st2" d="M383.38,306.67c1.27-8.36-0.86-17.18-5.81-24.03"/>
	<path class="st2" d="M379.88,303.64c-0.04-6.39-2.14-12.76-5.91-17.92"/>
	<path class="st2" d="M374.71,302.12c-0.36-8.33-3.67-16.5-9.2-22.73"/>
	<path class="st2" d="M370.14,298.08c-1.82-6.44-5.97-12.2-11.5-15.97"/>
	<path class="st2" d="M364.07,297.06c-1.93-4.65-4.99-8.82-8.83-12.07"/>
	<path class="st2" d="M355.49,293.96c-3.33-4.78-7.72-8.82-12.76-11.73"/>
	<path class="st2" d="M341.7,289.9c-3.73-2.94-7.83-5.4-12.17-7.32"/>
	<path class="st2" d="M325.9,288.33c-3.92-2.06-8.04-3.74-12.29-5"/>
	<path class="st2" d="M313.56,292c-4.45-3.66-10.58-5.19-16.23-4.06c-4.56,0.92-9.79,3.45-14.32,4.5"/>
	<path class="st2" d="M278.93,294.49c-3.5,0.66-6.94,1.62-10.28,2.87"/>
	<path class="st2" d="M376.59,284.17c3.62,6.58,5.64,14.02,5.86,21.52C381.22,299.2,380.01,289.82,376.59,284.17z"/>
	<path class="st2" d="M370.38,282.68c2.9,5.57,4.77,11.67,5.49,17.91C377.85,293.69,374.75,288.37,370.38,282.68z"/>
	<path class="st2" d="M370,297.98c0.92-7.08-2.15-14.54-7.78-18.93"/>
	<path class="st2" d="M373.36,299.07c-3.52-6.1-8.21-11.51-13.74-15.86"/>
	<path class="st2" d="M349.56,282.02c3.4,3.33,6.25,7.22,8.43,11.45"/>
	<path class="st2" d="M343.73,289.89c-2.44-3.76-3.46-9.71-7.01-12.44c5.82,3.36,10.6,8.49,13.55,14.52"/>
	<path class="st2" d="M337.9,291.41c-0.55-5.43-3.72-10.54-8.33-13.45"/>
	<path class="st2" d="M331.92,289.42c-3.04-4.44-7.24-8.07-12.07-10.44"/>
	<path class="st2" d="M325.87,289.89c-2.9-3.43-6.33-6.4-10.13-8.78"/>
	<path class="st2" d="M319.22,289.39c-2.83-3.02-6.04-5.68-9.51-7.93"/>
	<path class="st2" d="M315.12,289.94c-4.19-3.03-9.11-5.05-14.22-5.83c-4.09-0.63-10.76,1.89-14.85,2.54"/>
	<path class="st2" d="M290.16,289.9c-3.33,0.39-6.62,1.19-9.77,2.36"/>
	<path class="st2" d="M297.82,294.03c-7.68,0.36-15.41-0.25-22.94-1.82"/>
	<path class="st2" d="M367.15,300.1c-1.72-6.42-5.22-12.36-9.99-16.99"/>
	<path class="st2" d="M386.87,288.27c1.7,5.97,1.76,12.4,0.15,18.4C388.23,301.31,388.05,293.63,386.87,288.27z"/>
	<path class="st2" d="M315.03,289.99c-1.56-2.15-3.15-4.33-5.24-5.97c-2.09-1.64-4.79-2.7-7.41-2.25"/>
	<path class="st2" d="M331.75,289.34c0.07-4.63-1.77-9.26-4.99-12.59"/>
	<path class="st2" d="M328.42,288.86c-1.87-3.12-4.27-5.92-7.06-8.25"/>
	<path class="st2" d="M355.82,294.03c-2.11-6.2-4.9-13.13-11.02-15.47"/>
	<path class="st2" d="M371.61,299.58c-0.98-9.47-7.04-18.27-15.55-22.56"/>
	<path class="st2" d="M366.66,298.58c-2.59-6.51-6.99-12.28-12.58-16.5"/>
	<path class="st2" d="M342.71,276.25c7.75,1.7,13.79,9.25,13.75,17.18C354.5,287.71,348.32,278.53,342.71,276.25z"/>
	<path class="st2" d="M307,288.37c-4.97-1.41-10.14-2.14-15.31-2.17"/>
	<path class="st2" d="M303.4,291.49c-7.52-2.53-15.81-2.73-23.44-0.56"/>
	<path class="st2" d="M281.49,296.03c-4.37,0.95-8.67,2.25-12.83,3.91"/>
</g>
</svg>
