<?xml version="1.0" encoding="utf-8"?>
<!-- Generator: Adobe Illustrator 25.1.0, SVG Export Plug-In . SVG Version: 6.00 Build 0)  -->
<svg version="1.1" id="Lager_1" xmlns="http://www.w3.org/2000/svg" xmlns:xlink="http://www.w3.org/1999/xlink" x="0px" y="0px"
	 viewBox="0 0 1366 768" style="enable-background:new 0 0 1366 768;" xml:space="preserve">
<style type="text/css">
	.st0{fill:#8B659A;}
	.st1{fill:#F5F6F0;}
	.st2{fill:#3E1A44;}
	.st3{fill:#814895;}
	.st4{fill:#A880B7;}
	.st5{fill:#5E2364;}
	.st6{fill:#2C1837;}
	.st7{fill:#351D49;}
</style>
<circle class="st0" cx="674.35" cy="383.7" r="162.87"/>
<path class="st1" d="M726.39,333.36c-0.93,0.48-1.84,1.02-2.71,1.61c-0.79,0.53-1.56,1.11-2.2,1.82c-0.68,0.75-1.2,1.63-1.71,2.5
	c-1.49,2.51-3.01,5.14-3.24,8.05c-0.02,0.24-0.02,0.5,0.12,0.69c0.26,0.34,0.79,0.23,1.21,0.12c1.59-0.44,3.26-0.43,4.87-0.79
	c1.57-0.36,3.04-1.06,4.46-1.82c1.99-1.07,3.92-2.26,5.77-3.57c0.69-0.49,1.4-1.05,1.65-1.85c0.2-0.67,0.05-1.38-0.13-2.06
	c-0.37-1.39-0.86-2.78-1.76-3.89c-0.91-1.11-2.3-1.91-3.73-1.78c-1.43,0.13-2.62,1.14-3.97,1.65"/>
<path class="st1" d="M773.85,317.63c0.29,0.02,0.6,0.03,0.86-0.1c0.36-0.19,0.55-0.61,0.57-1.02s-0.11-0.81-0.21-1.2
	c-0.27-1-0.45-2.03-0.53-3.07c-0.08-0.98-0.07-1.97-0.33-2.91c-0.24-0.89-0.89-1.82-1.81-1.8c-0.74,0.02-1.3,0.64-1.77,1.21
	c-0.42,0.51-0.84,1.03-1.26,1.54c-0.58,0.71-1.16,1.44-1.57,2.27c-0.28,0.57-0.6,1.35-0.56,2c0.03,0.63,0.81,1.01,1.28,1.3
	c0.76,0.48,1.57,0.87,2.42,1.16C771.87,317.34,772.86,317.55,773.85,317.63z"/>
<path class="st2" d="M801.94,389c1.26,3.94,6.32,6.48,9.6,3.89c3.09-2.44,3.93-8.34,7.74-8.34c2.01,0,3.51,1.97,3.9,4
	c0.39,2.03-0.01,4.14-0.11,6.23c-0.03,0.6-0.03,1.22,0.21,1.77c0.31,0.74,1,1.22,1.65,1.65c2.43,1.62,4.98,3.28,6.45,5.85
	c1.48,2.57,1.48,6.36-0.81,8.35c-1.04,0.91-2.39,1.31-3.68,1.74c-3.98,1.32-8.16,3.42-9.99,7.32c-2.54,5.41,0.48,11.69-0.4,17.57
	c-0.35,2.32-1.3,4.57-1.36,6.9c-0.11,4.75,3.43,8.54,6.94,11.47c3.97,3.31,8.28,6.31,13.17,7.96c4.88,1.65,10.41,1.85,15.24-0.31
	c5.35-2.4,9.32-7.47,11.7-12.98c2.38-5.51,3.35-11.49,4.23-17.41c0.68-4.56,1.26-9.47-0.76-13.49c-1.85-3.68-5.54-5.87-8.34-8.83
	c-2.02-2.14-3.59-4.69-5.31-7.1c-3.54-4.95-7.74-9.33-11.94-13.7c-5.47-5.7-10.98-11.42-17.36-16.02c-3.2-2.31-6.82-4.39-10.79-4.33
	c-3.07,0.04-6.26,1.76-8,4.48c-0.61,0.96-0.8,2-1.02,3.09c-0.31,1.59-0.89,3.12-1.2,4.71C801.38,385.33,801.38,387.24,801.94,389z"
	/>
<path class="st2" d="M802.42,431c4.78,2.37,10.67,2.73,15.04,0.43c1.33-0.7,2.52-1.64,3.98-2.11s3.36-0.35,4.48,0.79
	c0.83,0.85,1.02,2.04,1.17,3.13c0.26,1.92,0.52,3.85,0.78,5.77c0.58,4.24,1.15,8.55,0.4,12.66c-0.75,4.11-3.04,8.06-6.99,9.91
	c-5.59,2.61-13.17,0.26-17.99-4.15c-4.82-4.41-7.36-10.42-9.12-16.32c-1.46-4.88-2.48-9.96-2.03-14.89
	c0.08-0.84-0.03-2.51,1.25-2.55c1.1-0.03,1.9,1.64,2.52,2.33C797.73,428.03,799.93,429.77,802.42,431z"/>
<path class="st2" d="M645.58,424.37c-1.85-1.23-3.9-2.76-4.07-4.97c-0.21-2.68,2.67-4.78,5.35-4.75s5.1,1.53,7.32,3.05
	c20.52,14.04,37.15,33.18,57.73,47.13c1.68,1.14,3.45,2.27,5.45,2.58c2.12,0.34,4.27-0.27,6.34-0.87c6.64-1.94,13.35-3.9,19.37-7.3
	c8.97-5.05,16.69-13.33,26.92-14.51c2.58-0.3,5.53-0.25,7.3-2.15c1.55-1.66,1.57-4.18,1.62-6.45c0.2-9.5,2.49-18.95,6.64-27.5
	c2.31-4.74,5.23-9.35,5.98-14.57c0.29-1.99,0.25-4.06,0.99-5.93c2.04-5.18,10.46-6.04,13.49-1.37c3.02,4.64,0.31,10.75-2.52,15.52
	c-5.63,9.5-11.87,19.34-12.28,30.38c-0.07,2,0.08,4.11,1.17,5.79c2.67,4.13,8.74,3.35,13.57,4.23
	c13.05,2.37,20.24,19.15,33.47,20.25c9.49,0.79,17.79-7.53,20.35-16.7c2.55-9.17,0.78-18.92-1.01-28.27
	c11.52,3.91,18.08,16.76,18.4,28.93c0.37,13.88-5.87,27.39-15.1,37.76c-9.23,10.37-21.27,17.87-33.81,23.83
	c-15.68,7.46-32.75,12.77-50.11,12.4c-22.7-0.5-44.53-10.64-67.22-9.91c-4.25,0.14-8.69,0.63-12.62-1.02
	c-2.82-1.18-5.1-3.37-7.1-5.68c-10.74-12.44-13.24-41.95-27.33-61.17c-2.82-3.84-7.76-9.58-16.16-15.07"/>
<path class="st3" d="M739.18,343.8c-2.17,2.43-4.85,4.35-7.51,6.23c-1.96,1.4-3.96,2.81-6.22,3.62c-4.49,1.62-9.49,0.72-14.06-0.65
	c-0.54-0.16-1.1-0.34-1.5-0.73c-1.04-1.01-0.52-2.75,0.12-4.05c4.28-8.78,10.82-16.44,18.81-22.03c-5.44-0.34-10.7,2.44-14.54,6.3
	c-3.84,3.86-6.48,8.73-8.99,13.57c-0.73,1.41-1.47,2.85-1.79,4.4c-0.42,2.04-0.11,4.17,0.44,6.17c0.39,1.43,0.93,2.86,1.9,3.97
	c1.8,2.08,4.76,2.71,7.5,2.81c5.94,0.2,11.93-1.62,16.75-5.1c3.55-2.56,6.57-6.22,7.18-10.55c-0.64-0.21-1.21-0.62-1.62-1.15"/>
<path class="st3" d="M763.02,322.49c3.07,2.86,7.58,3.34,11.54,4.74c3.34,1.18,6.38,3.08,9.39,4.97
	c6.45,4.04,12.91,8.09,19.36,12.13c2.12,1.33,4.98,2.64,6.93,1.07c0.82-0.66,1.52-1.81,2.55-1.61c0.49,0.1,0.85,0.49,1.15,0.89
	c2.89,3.84,2.52,9.77-0.83,13.21c-0.24,0.24-0.51,0.49-0.84,0.54c-0.36,0.06-0.72-0.1-1.03-0.31c-2.12-1.43-2.37-4.5-4.08-6.4
	c-1.39-1.53-3.58-2.1-5.64-2.12s-4.11,0.42-6.18,0.55c-0.71,0.04-1.45,0.05-2.13-0.18c-1.21-0.4-2.05-1.46-2.87-2.43
	c-2.4-2.84-5.16-5.37-7.9-7.89c-2.35-2.16-4.72-4.32-7.36-6.12c-5.58-3.8-12.59-6.17-16.09-11.94c2.96,0.23,5.85,1.28,8.27,3"/>
<path class="st3" d="M727.85,309.49c3.22-3.4,6.74-6.82,11.22-8.16c4.48-1.34,10.17,0.16,12.04,4.46c0.67,1.54,0.79,3.25,1.27,4.86
	c1.64,5.6,7.05,9.07,11.88,12.34c8.08,5.47,15.61,11.76,22.43,18.74c1.84,1.88,4.06,3.98,6.67,3.63c0.93-0.12,1.78-0.55,2.68-0.81
	c2.78-0.79,5.83,0.16,8.17,1.86c2.34,1.7,4.08,4.08,5.73,6.45c0.18,0.25,0.36,0.56,0.25,0.85c-0.07,0.19-0.26,0.32-0.44,0.43
	c-1.18,0.75-2.36,1.5-3.54,2.25c-0.66-1.99-2.5-3.45-4.53-3.98c-2.03-0.53-4.2-0.21-6.16,0.55c-4.91,1.91-8.54,6.74-9,11.99
	c-0.23,2.64-0.81,3.63-0.7,4.15c0.24,1.12,0.74,1.51,0.53,2.21c-0.43,1.4-3.07,1.73-3.95,1.84c-1.02,0.13-2.87,0.36-4.77-0.62
	c-2.33-1.2-3.24-3.44-3.78-4.8c-1.09-2.79-0.88-5.2-0.56-9.04c0.32-3.82,0.94-5.08,0.54-8.18c-0.16-1.22-0.31-2.43-0.95-3.9
	c-0.77-1.79-2.03-1.97-5.68-6.69c-4.95-6.39-7.36-4.08-12.08-10.16c-3.47-4.48-6.31-5.55-8.1-10.01c-0.42-1.05-1.45-2.35-2.38-1.7
	c-0.51,0.36-0.53,1.09-0.54,1.71c-0.03,1.66-0.34,3.32-0.91,4.88c-0.23,0.61-0.52,1.24-1.05,1.61c-1.14,0.81-2.7,0.12-3.91-0.57
	c-4.64-2.67-9.29-5.34-13.93-8c-0.32-0.19-0.67-0.4-0.79-0.76c-0.1-0.3,0-0.63,0.1-0.93c0.46-1.33,7.53-10.17,7.86-10.59"/>
<path class="st3" d="M681.73,385.91c4.38,4.52,11.22,6.48,17.33,4.97c4.94-1.22,9.1-4.43,13.41-7.16c4.3-2.72,9.28-5.08,14.31-4.28
	c4.98,0.8,8.98,4.57,11.9,8.68c2.92,4.12,5.1,8.75,8.36,12.61c3.28,3.9,7.52,6.85,11.71,9.76c3.16,2.2,7.47,4.41,10.57,2.13
	c1.69-1.24,3.29-3.76,5.16-2.82c0.84,0.43,1.2,1.43,1.35,2.36c0.55,3.38-0.67,6.87-2.63,9.69s-4.59,5.09-7.19,7.32
	c-9.29,7.97-18.84,16.1-30.32,20.32c-2.71,1-5.61,1.78-8.48,1.41c-4.71-0.61-8.43-4.12-12.07-7.16
	c-9.5-7.92-20.61-13.62-31.62-19.25c-8.94-4.57-17.94-9.17-27.59-11.95c-1.78-0.51-3.84-1.19-4.46-2.94
	c-0.21-0.6-0.21-1.24-0.2-1.88c0.2-6.74,2.77-13.16,5.31-19.41c2.99-7.37,6.27-15.08,12.58-19.92c0.76-0.58,1.57-1.05,2.55-0.87
	c0.95,0.18,1.94,0.61,2.82,1c1.11,0.5,1.87,1.21,2.06,2.44c0.25,1.63,0.02,3.31,0.26,4.95c0.26,1.74,0.77,3.44,1.5,5.04
	C679.2,382.79,680.33,384.47,681.73,385.91z"/>
<path class="st3" d="M635.54,410.24c1.01-2.13,3.63-2.96,5.98-3.04s4.76,0.36,7.04-0.2c4.82-1.19,7.51-6.32,8.83-11.1
	c1.32-4.78,2.02-10.02,5.27-13.77c2.53-2.93,6.35-4.6,8.62-7.73c1.68-2.31,2.48-5.36,4.84-6.98c1-0.69,2.21-1.04,3.17-1.78
	c3.22-2.46,2.29-7.38,1.99-11.41c-0.76-10.14,4.51-19.63,9.27-28.61c0.31-0.59,0.64-1.23,0.56-1.9c-0.08-0.68-0.56-1.25-1.03-1.75
	c-6-6.42-13.63-11.03-21.16-15.55c-15.13-9.09-30.55-18.31-47.69-22.52c-4.66-1.15-9.54-1.91-14.25-1
	c-5.83,1.13-10.94,4.77-14.8,9.28c-3.86,4.51-6.58,9.87-9.03,15.27c-4.23,9.32-7.77,18.95-10.59,28.78
	c-2.63,9.18-4.63,18.68-4.12,28.22c0.51,9.54,3.75,19.19,10.43,26.02c8.52,8.71,21.11,11.64,32.47,16.05
	c4.33,1.68,8.63,3.63,13.23,4.21c4.61,0.58,9.71-0.46,12.79-3.94"/>
<path class="st2" d="M798.66,358.66c-2.54,0.97-4.61,2.93-6.1,5.2c-1.19,1.8-2.05,3.84-2.32,5.98c-0.09,0.76-0.09,1.58,0.33,2.21
	c0.48,0.71,1.42,1,2.27,0.9c0.85-0.1,1.62-0.54,2.31-1.05c1.77-1.31,3.12-3.11,4.78-4.56c2.23-1.94,5.06-3.28,6.81-5.73
	c0.53-0.74,1.43-2.04,0.36-2.72c-0.92-0.58-2.29-0.55-3.33-0.7C802.03,357.94,800.32,358.02,798.66,358.66z"/>
<path class="st2" d="M715.74,325.61c-2.67,2.82-4.74,6.15-6.68,9.52c-1.86,3.24-3.62,6.55-5.27,9.91c-0.69,1.41-1.38,2.94-1.2,4.5
	c3.08-5.13,6.16-10.26,9.69-15.09c2.61-3.57,5.74-7.15,10-8.3c3.16-0.86,6.52-0.25,9.74,0.36c-0.08-0.02-0.65-1.87-0.75-2.07
	c-0.32-0.68-0.71-1.32-1.16-1.92c-0.85-1.14-1.97-2.3-3.25-2.95c-1.03-0.52-1.86-0.15-2.82,0.32c-1.4,0.68-2.8,1.29-4.11,2.15
	C718.41,323.06,717.01,324.28,715.74,325.61z"/>
<path class="st2" d="M761.15,305.11c-0.05-0.26-0.08-0.52-0.09-0.79c-0.02-1.04,0.27-2.14,1-2.88c0.75-0.77,1.86-1.08,2.94-1.16
	c2.96-0.24,6.01,1.03,7.92,3.3c-2.17,1.66-4.11,3.62-5.75,5.8c-0.72,0.96-1.38,1.95-2.15,2.87c-0.15,0.18-0.32,0.36-0.54,0.41
	c-0.33,0.07-0.63-0.18-0.87-0.42c-0.62-0.6-1.24-1.26-1.45-2.1c-0.11-0.42-0.11-0.85-0.11-1.28c0-1.48,0.18-3.09-0.06-4.55
	c-0.07-0.42-0.24-0.83-0.2-1.26c0.11-1.31,1.47-2.78,2.72-2.97c0.5-0.08,1.01,0.04,1.5,0.18c2.82,0.81,5.39,2.49,8.3,2.83
	c-0.12-0.57-0.54-1.02-0.95-1.43c-1.59-1.56-3.41-2.99-5.56-3.6c-2.15-0.61-4.67-0.27-6.24,1.33c-1.32,1.35-1.76,3.37-1.59,5.25
	c0.06,0.7,0.2,1.4,0.39,2.08c0.08,0.3,0.36,1.76,0.67,1.83c0.44,0.09,0.56-1.2,0.53-1.51C761.49,306.38,761.27,305.76,761.15,305.11
	z"/>
<path class="st2" d="M764.22,296.59c1.14-1.03,2.3-2.08,3.7-2.71s3.1-0.8,4.45-0.06c0.92,0.5,1.58,1.37,2.12,2.26
	c1.11,1.84,1.83,3.92,2.09,6.05c0.01,0.1,0.02,0.21-0.01,0.31c-0.12,0.34-0.62,0.29-0.96,0.15c-3.81-1.47-7.17-4.07-11.13-5.09
	c-0.48-0.12-1.11-0.57-0.79-0.96c0.09-0.11,0.23-0.16,0.36-0.2c0.99-0.31,1.99-0.59,3-0.85"/>
<path class="st2" d="M767.9,368.61c1.44,5.07,6.08,9.41,11.35,9.38c0.78-0.01,1.6-0.12,2.25-0.57c0.64-0.45,1.05-1.31,0.76-2.04
	c-0.15-0.37-0.44-0.66-0.77-0.88c-1.96-1.36-4.88-0.72-6.72-2.23c-1.1-0.91-1.54-2.38-1.79-3.78c-0.59-3.24-0.47-6.59,0.31-9.79
	c0.39-1.59,0.94-3.14,1.66-4.61c0.5-1.04,1.4-2.3,1.14-3.53c-0.59-2.83-5.29,0.72-6.23,1.79c-1.39,1.6-1.57,3.78-1.85,5.79
	c-0.44,3.16-1.04,6.18-0.39,9.37C767.7,367.87,767.79,368.25,767.9,368.61z"/>
<path class="st4" d="M608.33,263.18c10.1-5.96,22.04-8.12,33.77-8.54c7.13-0.25,14.38,0.13,21.13,2.44
	c12.26,4.2,21.43,14.2,31.01,22.92s21.33,16.89,34.25,15.92c3.59-0.27,7.12-1.25,10.33-2.88c1.17-0.59,2.52-1.28,3.72-0.75
	c1.01,0.45,1.48,1.59,1.99,2.57c1.94,3.73,5.65,6.21,8.17,9.57c3.98,5.31,4.83,12.53,9.08,17.62c2.87,3.44,7,5.55,11.02,7.53
	c8.17,4.04,16.48,8.02,23.57,13.74c2.27,1.83,4.48,3.87,7.23,4.81s6.28,0.42,7.82-2.05c-7.56-6.45-15.9-12-24.77-16.48
	c-9.72-4.91-21.25-9.79-24.38-20.22c-1.01-3.35-1.02-7.05-2.76-10.09c1.5-6.66,4.91-12.88,9.73-17.72
	c-11.05-2.31-18.66-12.03-26.73-19.92c-23.28-22.76-56.96-33.4-89.47-31.66c-7.07,0.38-14.2,1.33-20.77,3.97
	c-7.63,3.07-14.18,8.27-20.6,13.41c-3.63,2.9-7.66,7.36-5.65,11.55c1.87,3.89,7.3,3.93,11.58,3.4"/>
<path class="st4" d="M756.38,362.37c3.2,6.08,6.46,12.23,11.13,17.27c3.17,3.43,7.09,6.5,8.54,10.94c0.17,0.53,0.3,1.14,0.02,1.61
	c-0.6,1.02-2.17,0.44-3.14-0.26c-5.29-3.78-10.58-7.56-15.87-11.34c-1.26-0.9-2.56-1.82-4.05-2.25c-1.54-0.45-3.18-0.34-4.79-0.23
	c-8.54,0.59-17.08,1.18-25.62,1.78c-3.29,0.23-6.64,0.45-9.85-0.32c-1.63-0.39-3.55-1.96-2.64-3.37c0.32-0.49,0.9-0.74,1.46-0.93
	c4.1-1.37,8.49-0.93,12.68-1.8c1.96-0.41,3.92-1.12,5.56-2.3c0.77-0.55,1.47-1.21,2.03-1.97c0.66-0.91,1.15-1.57,0.25-2.44
	c-1.88-1.82-5.03-2.9-4.03-6.15c0.83-2.7,3.49-4.86,5.43-6.77c1.46-1.44,2.92-2.88,4.26-4.43c1.77-2.06,2.93-4.32,4.31-6.6
	c2.59,1.47,4.83,4.34,6.6,6.68c1.93,2.54,3.59,5.27,5.14,8.06C754.68,359.15,755.53,360.76,756.38,362.37z"/>
<path class="st3" d="M597.46,416.98c-3.62,0.04-7.51,0.8-9.98,3.45c-2.32,2.5-2.88,6.11-3.24,9.5c-0.33,3.17-0.58,6.37-0.18,9.53
	c1.27,9.98,8.71,18.01,16.5,24.36c6.21,5.07,13.02,9.61,20.66,12.04c6.98,2.22,14.4,2.59,21.72,2.94c3.92,0.19,7.88,0.38,11.73-0.34
	c2.65-0.49,5.32-1.47,7.15-3.44c1.02-1.1,1.74-2.46,2.26-3.86c0.65-1.77,1.01-3.69,0.66-5.54c-0.55-2.91-2.72-5.21-4.8-7.32
	c-11-11.19-22-22.38-33-33.58c-2.55-2.59-5.14-5.22-8.32-6.98c-2.41-1.33-5.22-2.13-7.98-1.86c-0.65,0.06-1.39,0.15-1.99,0.43
	c-0.5,0.24-0.83,0.53-1.41,0.62c-1.52,0.22-3.07,0.21-4.59,0.18C600.93,417.07,599.2,416.96,597.46,416.98z"/>
<path class="st2" d="M623.81,434.7c1.11,0.76,2.27,1.63,2.68,2.91c0.53,1.64-0.32,3.41-0.18,5.13c0.1,1.2,0.76,2.39,1.84,2.93
	c1.08,0.54,2.55,0.29,3.24-0.69c0.27-0.38,0.42-0.85,0.8-1.12c0.51-0.37,1.25-0.23,1.76,0.15s0.84,0.93,1.21,1.44
	c0.84,1.19,1.9,2.21,3.11,3.02c3.67,2.44,8.66,2.86,11.56,6.18c0.2,0.22,0.39,0.48,0.39,0.78c0.01,0.41-0.33,0.72-0.64,0.98
	c-2.07,1.74-4.52,3.58-7.19,3.16c-1.91-0.3-3.52-1.74-5.45-1.92c-1.04-0.1-2.08,0.19-3.1,0.43c-3.34,0.78-6.76,1.1-10.17,1.42
	c1.86-0.97,3.73-1.95,5.59-2.92c0.77-0.4,1.59-0.85,2.01-1.61c0.37-0.67,0.38-1.48,0.33-2.25c-0.06-0.92-0.18-1.84-0.36-2.74
	c-0.09-0.46-0.27-1.01-0.73-1.13c-0.36-0.09-0.72,0.12-1.04,0.29c-2.55,1.34-5.66,0.4-8.38-0.56c-1.3-0.46-2.6-0.92-3.9-1.38
	c-1.43-0.5-2.97-1.1-3.74-2.4c-0.52-0.88-0.6-1.95-0.67-2.97c-0.08-1.15-0.15-2.33,0.19-3.43c0.62-2,2.35-3.37,3.15-5.27
	c0.26-0.62,0.34-1.54,1.2-1.53c1.05,0.02,2.21,0.59,3.13,1.04C621.63,433.24,622.73,433.96,623.81,434.7z"/>
<path class="st2" d="M611.67,428.66c0.54,0.13,1.1,0.26,1.58,0.54s0.89,0.74,0.97,1.29c0.11,0.72-0.38,1.43-1,1.81
	c-0.63,0.38-1.37,0.49-2.09,0.6c-1.12,0.16-2.28,0.31-3.36-0.05c-0.99-0.33-1.79-1.05-2.46-1.82c-0.36-0.42-0.7-0.86-1.02-1.31
	c-0.26-0.35-0.66-0.76-0.75-1.2c-0.13-0.71,0.59-1.18,1.2-1.3c0.45-0.08,0.86,0.02,1.29,0.13c0.58,0.14,1.16,0.27,1.74,0.41
	C609.08,428.05,610.38,428.36,611.67,428.66z"/>
<path class="st4" d="M598.99,416.57c-4.04,0.07-8.46,0.28-11.46,2.99c-1.51,1.36-2.47,3.22-3.17,5.12
	c-3.67,9.98-0.39,21.56,6.25,29.86c6.64,8.31,16.18,13.79,25.96,17.96c11.04,4.71,22.95,8.04,34.93,7.31
	c2.53-0.15,5.16-0.53,7.22-1.99c-5.85,0.62-11.75,1.23-17.6,0.57c-8.23-0.92-15.96-4.32-23.49-7.79
	c-11.3-5.22-23.06-11.2-29.73-21.71c-4.31-6.8-5.95-16.02-1.62-22.81c2.77-4.34,7.59-7.07,12.61-8.21s10.25-0.83,15.36-0.15
	c-1.11-1.55-3.31-1.69-5.21-1.69c-4.05,0-8.11,0-12.16,0"/>
<path class="st4" d="M618.32,462.51c2.56,0.6,5.62,0.67,7.39-1.27c-6.34-0.09-12.54-3.52-16-8.84c-1.23-1.89-2.25-4.21-4.36-5.29
	c-0.32-0.16-0.91-0.46-1.21-0.1c-0.27,0.34-0.09,0.98,0,1.35c0.42,1.68,1.27,3.28,2.07,4.8c1.06,2.03,2.2,3.95,3.96,5.46
	c2.06,1.77,4.57,2.92,7.17,3.63C617.67,462.36,618,462.44,618.32,462.51z"/>
<path class="st5" d="M585.64,436c0.02,3.44,1.54,6.68,3.22,9.67c1.2,2.14,2.5,4.24,3.99,6.18c1.6,2.09,3.43,4.01,5.4,5.77
	c1.65,1.47,3.4,2.82,5.32,3.89c2.07,1.16,4.32,1.97,6.55,2.78c8.93,3.21,17.91,6.28,26.93,9.2c-1.32-2.2-3.76-3.44-6.14-4.41
	c-6.17-2.51-12.77-3.94-18.79-6.8c-6.02-2.86-11.65-7.57-13.37-14.01c-0.52-1.94-0.64-4.07,0.21-5.89c0.5-1.08,1.32-1.99,1.86-3.05
	c0.54-1.06,0.77-2.42,0.09-3.39c-1.09-1.55-3.87-1.35-4.59-3.11c-0.58-1.42,0.61-2.88,0.95-4.21c0.13-0.53,0.24-1.29-0.33-1.6
	c-0.52-0.29-1.26-0.12-1.8-0.03c-0.83,0.14-1.66,0.32-2.5,0.44c-0.9,0.12-1.79,0.29-2.61,0.68c-1.34,0.63-2.4,1.74-3.13,3.01
	C586.06,432.6,585.63,434.31,585.64,436z"/>
<circle class="st6" cx="723.47" cy="339.79" r="2.73"/>
<circle class="st7" cx="774.3" cy="313.33" r="1.84"/>
</svg>
