<?xml version="1.0" encoding="utf-8"?>
<!-- Generator: Adobe Illustrator 25.1.0, SVG Export Plug-In . SVG Version: 6.00 Build 0)  -->
<svg version="1.1" id="Lager_1" xmlns="http://www.w3.org/2000/svg" xmlns:xlink="http://www.w3.org/1999/xlink" x="0px" y="0px"
	 viewBox="0 0 1366 768" style="enable-background:new 0 0 1366 768;" xml:space="preserve">
<style type="text/css">
	.st0{fill:url(#SVGID_1_);stroke:url(#SVGID_2_);stroke-miterlimit:10;}
	.st1{fill:url(#SVGID_3_);stroke:url(#SVGID_4_);stroke-miterlimit:10;}
	.st2{fill:url(#SVGID_5_);stroke:url(#SVGID_6_);stroke-miterlimit:10;}
	.st3{fill:url(#SVGID_7_);stroke:url(#SVGID_8_);stroke-miterlimit:10;}
	.st4{fill:#F9CDBF;}
	.st5{fill:#821624;}
	.st6{fill:#9B2344;}
	.st7{fill:#ED7896;}
	.st8{fill:#D0ABA1;}
	.st9{fill:#D9CBCA;}
	.st10{fill:#F4ABA0;}
	.st11{fill:#3B2D2A;}
	.st12{fill:none;}
	.st13{fill:#393A3A;}
	.st14{fill:#A09E9E;}
	.st15{fill:#1E1D19;}
	.st16{fill:none;stroke:#F9F9F9;stroke-width:0.25;stroke-miterlimit:10;}
	.st17{fill:#FBDACB;}
	.st18{fill:#EFBEB1;}
</style>
<radialGradient id="SVGID_1_" cx="567.8927" cy="469.8863" r="12.8467" gradientUnits="userSpaceOnUse">
	<stop  offset="0.0745" style="stop-color:#95504C"/>
	<stop  offset="0.5036" style="stop-color:#A2735D"/>
	<stop  offset="0.8861" style="stop-color:#F5C198"/>
</radialGradient>
<radialGradient id="SVGID_2_" cx="567.8927" cy="469.8863" r="13.1471" gradientUnits="userSpaceOnUse">
	<stop  offset="0.4041" style="stop-color:#703C37"/>
	<stop  offset="0.8809" style="stop-color:#934F4B"/>
</radialGradient>
<line class="st0" x1="559.12" y1="453.98" x2="576.67" y2="485.79"/>
<radialGradient id="SVGID_3_" cx="571.1839" cy="467.1436" r="10.1144" gradientUnits="userSpaceOnUse">
	<stop  offset="0.0745" style="stop-color:#95504C"/>
	<stop  offset="0.5036" style="stop-color:#A2735D"/>
	<stop  offset="0.8861" style="stop-color:#F5C198"/>
</radialGradient>
<radialGradient id="SVGID_4_" cx="571.1839" cy="467.1436" r="10.4358" gradientUnits="userSpaceOnUse">
	<stop  offset="0.4041" style="stop-color:#703C37"/>
	<stop  offset="0.8809" style="stop-color:#934F4B"/>
</radialGradient>
<line class="st1" x1="559.12" y1="474.82" x2="583.25" y2="459.46"/>
<radialGradient id="SVGID_5_" cx="571.1839" cy="470.9834" r="8.9547" gradientUnits="userSpaceOnUse">
	<stop  offset="0.0745" style="stop-color:#95504C"/>
	<stop  offset="0.5036" style="stop-color:#A2735D"/>
	<stop  offset="0.8861" style="stop-color:#F5C198"/>
</radialGradient>
<radialGradient id="SVGID_6_" cx="571.1839" cy="470.9834" r="9.1636" gradientUnits="userSpaceOnUse">
	<stop  offset="0.4041" style="stop-color:#703C37"/>
	<stop  offset="0.8809" style="stop-color:#934F4B"/>
</radialGradient>
<line class="st2" x1="559.12" y1="467.14" x2="583.25" y2="474.82"/>
<radialGradient id="SVGID_7_" cx="567.8927" cy="466.5951" r="8.921" gradientUnits="userSpaceOnUse">
	<stop  offset="0.0745" style="stop-color:#95504C"/>
	<stop  offset="0.5036" style="stop-color:#A2735D"/>
	<stop  offset="0.8861" style="stop-color:#F5C198"/>
</radialGradient>
<radialGradient id="SVGID_8_" cx="567.8927" cy="466.5951" r="8.928" gradientUnits="userSpaceOnUse">
	<stop  offset="0.4041" style="stop-color:#703C37"/>
	<stop  offset="0.8809" style="stop-color:#934F4B"/>
</radialGradient>
<line class="st3" x1="567.89" y1="479.21" x2="567.89" y2="453.98"/>
<ellipse class="st4" cx="697.72" cy="481.92" rx="159.76" ry="143.1"/>
<path class="st4" d="M719.24,327.77c-30.13-1.57-60.77,6.49-85.18,22.4c-8.23,5.37-15.74,11.57-22.99,17.97
	c-10.31,9.12-20.4,19.05-25.18,31.3c-7.44,19.07-0.84,39.89,2.1,59.91c2.55,17.39,2.28,35.02,4.66,52.43
	c2.38,17.41,7.72,35.07,19.96,48.75c4.95,5.53,10.89,10.26,16.8,14.97c8.73,6.95,17.46,13.9,26.19,20.84
	c19.52,15.53,42.23,32.08,68.25,30.11c5.89-0.45,11.82-1.93,16.55-5.1c3.61-2.42,6.36-5.71,8.76-9.13
	c8.06-11.51,12.87-25.34,24.52-34.06c6.94-5.19,15.73-8.07,22.68-13.24c10.03-7.44,15.29-18.96,17.58-30.45
	c2.29-11.48,1.99-23.24,2.98-34.87c1.82-21.4,8.01-42.31,10.99-63.61s2.5-43.83-8.25-63.01c-10.18-18.17-29.12-31.85-50.5-38.65
	c-21.38-6.8-45.01-6.99-67.1-2.35"/>
<path class="st5" d="M706.91,569.89c2.77,0.62,5.62,1.1,8.48,1c3.33-0.11,6.57-0.98,9.77-1.85c3.43-0.93,6.88-1.87,10.04-3.39
	c2.1-1.01,4.04-2.27,5.93-3.58c9.89-6.89,18.34-15.44,24.76-25.07c-0.52,6.18-3.58,11.93-6.85,17.39
	c-6.74,11.22-15.6,22.58-29.04,26.74c-8.16,2.53-17.09,2.07-25.64,0.97c-6.94-0.9-14.1-2.31-19.59-6.21
	c-2.87-2.04-5.15-4.66-7.39-7.26c-4.27-4.93-8.62-9.99-11.16-15.86c-0.68-1.57-1.49-3.4-1.61-5.08c2.59-1.2,6.79,0.84,8.64,2.53
	c1.55,1.41,2.43,3.29,3.8,4.82c2.2,2.46,5.25,4.36,8.14,6.12c3.09,1.88,6.36,3.53,9.75,4.94
	C698.78,567.69,702.8,568.97,706.91,569.89z"/>
<path class="st6" d="M701.38,558.07c6.05-0.8,12.35-2.99,18.07-0.25c1.28,0.61,2.56,1.48,3.92,1.39c1.24-0.08,2.35-0.93,3.45-1.7
	c9.61-6.76,20.76-8.24,31.59-9.59c-9.19,8.68-18.64,17.52-29.55,21.27c-5.91,2.03-12.07,2.47-18.13,1.73
	c-6.12-0.74-12.15-2.65-17.97-5.24c-2.94-1.3-5.83-2.78-8.67-4.4c-2.6-1.48-5.47-2.96-7.68-5.37c-1.01-1.1-0.42-1.41,0.62-1.31
	c1.82,0.19,3.64,0.83,5.42,1.35c5.52,1.62,10.99,2.74,16.67,2.33C699.87,558.25,700.63,558.17,701.38,558.07z"/>
<path class="st7" d="M743.79,564.03c-4.32,3.03-9.6,4.95-15.05,5.49c-0.75,0.07-1.6,0.16-2.07,0.69c-0.46,0.52-0.37,1.31,0.06,1.84
	c0.43,0.53,1.14,0.84,1.85,1c2.6,0.59,5.27-0.54,7.66-1.63c1.53-0.7,3.06-1.4,4.59-2.1c1.44-0.66,2.91-1.34,3.98-2.43
	c1.07-1.09,1.64-2.69,1-4.01c-1.87,0.08-3.69,0.75-5.09,1.86"/>
<path class="st7" d="M702.81,571.87c1.48,0.42,3.08,0.01,4.62-0.14c2.5-0.24,5.08,0.23,7.28,1.32c0.17,0.08,0.34,0.18,0.44,0.32
	c0.33,0.45-0.19,1.02-0.73,1.26c-1.67,0.77-3.7,0.43-5.51-0.03c-3.91-1.01-7.64-2.51-11.35-4.01c-0.65-0.26-5-2.4-2.84-3.05
	c1.9-0.57,3.85,1.38,5.06,2.4C700.69,570.7,701.6,571.53,702.81,571.87z"/>
<path class="st8" d="M761.37,510.08c5.63,3.91,10.89,8.23,15.72,12.92c1,0.97,2.02,2.02,2.39,3.3c0.42,1.43-0.03,2.94-0.48,4.36
	c-2.26,7.05-4.71,15.18-0.1,21.24c1.41-7.65,3.32-16.07,10.24-20.73c1.57-1.06,3.43-1.96,4.24-3.56c1-1.97-0.03-4.38-1.76-5.89
	c-1.73-1.52-4.03-2.36-6.22-3.28c-10.6-4.44-19.75-11.18-28.85-17.76c-0.99-0.71-2.31-1.62-3.67-1.39c-1.21,0.2-1.92,1.4-1.38,2.39
	c0.57,1.03,1.79,1.93,2.63,2.79c0.98,1.01,2.09,1.92,3.23,2.79C758.66,508.23,760.02,509.14,761.37,510.08z"/>
<path class="st8" d="M696.16,433.77c5.67,3.37,11.76,7.24,13.55,13.12c0.85,2.78,0.62,5.72,0.37,8.59
	c-0.7,7.79-1.59,15.56-2.67,23.32c-0.12,0.87-0.66,2.02-1.62,1.81c-0.45-0.1-0.73-0.49-0.95-0.85c-6.5-10.5-3.39-24.47-11.01-34.35
	c-2.22-2.87-5.43-6.15-3.85-9.34c0.88-1.78,3.19-2.8,5.36-2.68c2.18,0.12,4.18,1.22,5.63,2.67"/>
<path class="st8" d="M645.65,551.86c0,0.59-0.01,1.17-0.01,1.76c-2.41-0.67-4.5-2.03-6.54-3.36c-3.75-2.46-7.5-4.92-11.16-7.49
	c-1.85-1.3-3.67-2.62-5.46-3.99c-0.32-0.25-2.5-1.51-2.11-2.12c0.62-0.99,5.27,0.97,5.96,1.26c1.31,0.54,2.52,1.18,3.64,1.99
	c1.81,1.31,3.74,2.42,5.64,3.63C639.35,545.93,641.77,549.64,645.65,551.86z"/>
<path class="st8" d="M661.96,570.56c0.93,1.76,1.87,3.55,3.28,5.04c1.33,1.41,3.02,2.5,4.46,3.82c1.44,1.32,2.66,2.99,2.67,4.84
	c-1.71,0.6-3.71-0.12-4.98-1.3s-1.98-2.75-2.69-4.26c-2.36-5.06-5.02-10-7.98-14.8c-0.39-0.63-3.95-5.5-2.62-5.83
	c0.54-0.14,1.41,0.95,1.66,1.24c0.72,0.81,1.21,1.69,1.69,2.63C658.95,564.81,660.45,567.68,661.96,570.56z"/>
<path class="st8" d="M607.72,561.56c12,6.6,22.81,14.95,31.85,24.62c2.35,2.51,4.58,5.11,7.03,7.55
	c7.53,7.5,16.98,13.34,24.14,21.12c1.14,1.24,2.25,2.59,2.55,4.17c-7.55-0.65-13.43-5.92-18.62-10.87
	c-15.44-14.74-30.89-29.49-46.33-44.23c-0.9-0.86-1.86-2.04-1.28-3.1c0.9-1.64,3.67-0.53,5.14,0.74"/>
<path class="st8" d="M583.83,415.86c2.2,9.08,2.16,18.59-0.11,27.65c-0.23,0.92-0.5,1.86-1.13,2.62c-1.94,2.33-6.39,1.95-8.28,4.32
	c-1.14,1.44-0.91,3.39-0.64,5.14c2.78,17.49,5.87,35.7,17.21,50.15c3.72,4.74,8.45,9.38,8.9,15.16c0.12,1.51-0.23,3.27-1.7,4.01
	c-0.75,0.38-1.65,0.41-2.52,0.46c-3.62,0.21-7.21,0.91-10.6,2.06c-1.1,0.37-2.26,0.87-2.76,1.82c-0.4,0.76-0.27,1.65-0.15,2.48
	c1.15,7.8,1.27,15.72,0.38,23.55c-0.06,0.56-0.17,1.19-0.65,1.55c-0.6,0.45-1.5,0.29-2.22,0.04c-5.13-1.78-7.66-6.87-9.47-11.52
	c-9.91-25.44-14.09-52.66-12.23-79.56c0.62-9,1.92-17.95,2.59-26.95c0.82-10.91,0.72-21.89,2.25-32.74
	c1.53-10.85,4.81-21.74,11.73-30.75c0.51-0.67,1.13-1.38,2.02-1.52c0.59-0.09,1.2,0.09,1.75,0.3c4.4,1.75,6.97,6.04,7.71,10.3
	c0.74,4.26-0.04,8.6-0.56,12.88c-1.18,9.6-1.11,19.32,0.21,28.91"/>
<path class="st8" d="M685.5,600.43c-2.46,5.99-0.47,13.58,5.55,17c2.37,1.35,5.14,1.99,7.87,2.6c7.57,1.7,15.3,3.29,23.1,2.94
	c2.88-0.13,5.81-0.54,8.33-1.79c1.92-0.95,3.52-2.35,4.97-3.84c4.32-4.43,7.49-9.77,9.18-15.46c0.59-1.98,0.98-4.17,0-6.03
	c-1-1.91-3.21-3.1-5.16-4.14c-2.3-1.23-4.73-2.26-7.25-3.08c-3.73-1.22-7.76-2.47-11.71-2.95c-3.76-0.46-7.67,0.08-11.4,0.52
	c-4.95,0.58-9.83,1.87-14.07,4.28c-3.7,2.1-6.91,5.01-8.78,8.59C685.89,599.53,685.68,599.98,685.5,600.43z"/>
<path class="st9" d="M776.21,446.43c1.05-0.41,1.76-1.29,2.65-1.93c0.9-0.64,2.29-0.99,3.13-0.3c0.8,0.67,0.54,1.93-0.23,2.62
	c-0.77,0.69-1.88,0.97-2.93,1.25c-0.79,0.21-1.65,0.49-2.03,1.14c-0.47,0.8,0.01,1.79-0.17,2.68c-0.27,1.31-1.87,2.07-3.36,2.18
	c-1.48,0.11-2.97-0.22-4.45-0.14c-1.69,0.09-3.28,0.71-4.94,1.01c-0.88,0.16-1.85,0.21-2.6-0.23c-1.77-1.03-0.84-3.62-1.93-5.25
	c-0.87-1.3-3.03-1.97-3.05-3.48c-0.02-0.91,0.79-1.64,1.55-2.24c2.62-2.09,5.41-4.09,8.66-5.27c2.42-0.88,5.63-1.49,8.17-0.69
	c2.08,0.65,2.18,2.35,1.78,4.04c-0.19,0.78-0.32,1.56-0.36,2.36C776.07,444.39,776.23,446.43,776.21,446.43z"/>
<path class="st9" d="M674.36,443.78c-0.67,1.48-1.15,3.03-1.44,4.6c1.46,1.07,3.78,0.29,4.95-1.04c1.01-1.14,1.49-2.79,0.74-4.08
	c-0.74-1.3-2.96-1.84-4.08-0.79"/>
<path class="st9" d="M668.42,450.41c-0.27,0.9-0.65,1.9-1.57,2.33c-0.43,0.2-0.92,0.24-1.39,0.28c-3.29,0.22-6.58-0.19-9.85-0.6
	c-2.32-0.29-4.64-0.58-6.96-0.87c-1.41-0.18-2.87-0.37-4.03-1.1c-2.17-1.37-2.54-4.3-1.37-6.43c1.17-2.13,3.51-3.57,5.94-4.53
	c4.7-1.87,9.91-2.3,14.99-2.24c1.65,0.02,3.59-0.01,4.81,1.18c1.06,1.04,1.11,2.6,1,3.93C669.76,445.06,669.19,447.78,668.42,450.41
	z"/>
<path class="st10" d="M809.98,482.07c-3.58,5.9-8.91,10.94-15.29,14.46c-3.6,1.98-7.81,3.77-9.44,7.27
	c-1.46,3.13-0.35,6.71,0.9,9.91c1.22,3.13,2.63,6.3,5.11,8.75s6.28,4.1,9.9,3.41c5.28-1.01,7.98-6.18,9.65-10.78
	c4.24-11.68,6.92-23.93,6.37-36.2c-0.06-1.38-0.76-3.24-2.29-3.03c-0.86,0.12-1.39,0.89-1.8,1.58c-2.37,4.02-4.74,8.03-7.1,12.05"/>
<path class="st10" d="M648.33,496.54c3.99,1.46,8.39,3.06,10.32,6.51c1.82,3.26,0.77,7.34-1.58,10.33
	c-2.34,2.98-5.79,5.11-9.15,7.16c-0.73,0.45-1.49,0.91-2.36,1.07c-1.17,0.23-2.37-0.09-3.51-0.41c-3.3-0.92-6.66-1.87-9.54-3.58
	c-4.21-2.51-7.05-6.44-9.68-10.31c-2.4-3.53-4.74-7.12-6.47-10.96c-1.46-3.24-2.55-7.48,0.48-10.34c1.93-1.82,4.81-1.12,7.08-0.26
	c3.37,1.28,6.46,3.13,9.69,4.65C638.4,492.66,643.32,494.71,648.33,496.54z"/>
<path class="st11" d="M754.39,445.78c3.67-3.15,7.93-5.85,12.76-7.26c4.83-1.41,10.28-1.44,14.86,0.52c-1.5,0.73-3.25,2-2.66,3.43
	c0.67,1.62,3.47,1.32,4.87,2.52c-0.46,0.93-1.47,1.61-2.59,1.75c-0.64,0.08-1.3-0.01-1.91,0.15c-1.62,0.42-2.13,2.45-1.27,3.75
	c0.85,1.3,2.58,1.93,4.24,2.16c7.11,0.98,14.14-4.51,15.08-10.89c0.26-1.79,0.1-3.72-0.98-5.25c-1.26-1.78-3.54-2.74-5.76-3.43
	c-7.97-2.48-16.93-2.61-24.77,0.17c-7.84,2.77-14.43,8.55-17.13,15.7c3.21-1.92,6.56-3.64,10.03-5.16"/>
<path class="st11" d="M664.6,436c4.46-0.32,9.32,0.92,11.99,4.14c-0.61,1.36-3.67,0.53-4.08,1.95c-0.3,1.02,1.28,1.64,2.46,1.55
	c1.18-0.09,2.6-0.34,3.33,0.49c0.79,0.9-0.16,2.35-1.42,2.58c-1.25,0.24-2.51-0.33-3.58-0.96c-0.94-0.56-1.99-1.21-3.1-1.01
	c-1.31,0.24-2,1.63-1.84,2.82c0.27,1.93,2.19,3.41,4.27,3.97c2.08,0.56,4.3,0.39,6.46,0.21c2.86-0.24,5.73-0.47,8.59-0.71
	c-1.14-2.66-2.36-5.29-3.67-7.88c-1.19-2.36-2.47-4.73-4.47-6.6c-3.7-3.47-9.35-4.73-14.71-4.83c-4.66-0.09-9.34,0.61-13.73,2
	c-4.44,1.4-8.61,3.49-12.24,6.18c-0.59,0.44-2.91,1.76-2.61,2.71c0.22,0.7,1.67,0.61,2.26,0.6c3.17-0.07,6.5-0.92,9.4-2.02
	c4.8-1.83,9.51-4.13,14.7-4.94C663.28,436.13,663.94,436.05,664.6,436z"/>
<path class="st12" d="M743.91,562.82c-2.36,1.28-4.72,2.55-7.08,3.83c-1.1,0.59-2.21,1.19-3.42,1.57c-2.1,0.65-4.64,0.74-6.03,2.29
	c-0.51,0.58-0.77,1.47-0.23,2.03c0.29,0.3,0.73,0.43,1.16,0.51c2,0.39,4.1,0,5.96-0.76s3.52-1.86,5.16-2.95
	c2.37-1.58,4.94-3.43,5.38-6.05c0.06-0.35,0.03-0.78-0.31-0.95c-0.17-0.09-0.39-0.08-0.59-0.07c-1.26,0.1-2.47,0.56-3.43,1.29"/>
<path class="st12" d="M717.14,573.76c-0.03-0.7-0.66-1.25-1.3-1.66c-3.24-2.09-7.38-2.56-11.2-3.6c-4.02-1.1-7.75-2.86-11.64-4.25
	c-1.93-0.69-3.91-1.28-5.96-1.64c-0.75-0.13-1.99-0.49-2.72-0.15c-1.1,0.52,0.21,1.41,0.72,1.79c2.12,1.59,4.21,3.18,6.6,4.45
	c3.47,1.84,7.06,3.62,10.9,4.74c4.17,1.21,8.72,1.66,13.02,0.73C716.1,574.05,716.62,573.92,717.14,573.76z"/>
<path class="st13" d="M813,376.48c4.06,10.75,5.09,22.9,13.26,31.64c9.11,9.74,25.16,12.53,39.19,10.15
	c14.03-2.38,26.58-9.06,38.79-15.62c-11.96,3.01-23.31-7.91-25.25-18.79c-1.94-10.88,1.98-21.86,2.56-32.86
	c1.55-29.17-23.8-57.61-56.19-63.05c8.89-20.29,5.55-43.76-5.42-63.24c-10.97-19.48-28.96-35.29-48.91-48
	c-7.28-4.64-15.08-8.99-23.87-10.58c-14.83-2.68-29.8,2.85-43.65,8.27c-31.44,12.29-64.24,25.51-85.12,49.67
	c-5.89,6.81-11.03,14.65-19.54,18.75c-4.43,2.14-9.45,3.08-14.15,4.69c-14.05,4.82-25.06,16.06-28.47,29.05
	c-10.31-13.29-34.2-14.43-48.41-4.35c-14.21,10.07-18.93,28.21-14.9,43.94c-17.29-12.3-44.76-6.22-59.57,8.41
	c-6.4,6.32-11.24,14.55-10.23,22.99c1.07,8.99,8.47,16.4,16.54,21.95c18.46,12.69,42.41,18.95,65.69,17.16
	c3.42-0.26,7.28-0.57,9.87,1.42c1.84,1.42,2.51,3.65,3.1,5.74c3.03,10.83,6.07,21.65,9.1,32.48c1.95,6.96,3.85,14.55,0.5,21.07
	c-2.67,5.2-8.19,8.73-13.57,11.89c-21.87,12.87-45.19,23.81-69.5,32.59c24.17,0.78,48.34,1.56,72.51,2.34
	c5.6,0.18,11.81,0.6,15.66,4.2c3.16,2.97,3.86,7.35,6.08,10.92c5.19,8.35,17.22,10.78,27.84,12.35
	c-3.87-30.74-7.75-61.58-7.29-92.51c0.15-10.2,0.96-20.93,7.16-29.53c5.54-7.68,14.65-12.65,23.45-17.36
	c19.09-10.21,38.18-20.43,57.27-30.64c12.99-6.95,26.15-13.99,40.68-18.11c14.99-4.25,30.27-4.4,45.84-4
	c9.06,0.24,18.5,0.14,27.25,2.52c9.12,2.48,17.02,7.67,24.54,12.71c10.94,7.34,20.02,16.26,25.4,27.57
	C811.88,373.7,812.47,375.08,813,376.48z"/>
<path class="st14" d="M716.18,243.26c1.73-6.33,3.46-12.66,5.19-19c2.1-7.67,4.19-15.74,1.86-23.35
	c-2.33-7.61-10.74-14.35-19.34-12.63c4.51,1.93,6.92,6.59,7.17,11.06c0.25,4.47-1.29,8.85-2.82,13.11
	c-1.76,4.93-3.52,9.85-5.27,14.78c-3.5,9.82-7.05,20.07-5.25,30.25c0.74,4.19,2.64,8.24,5.42,11.66c1.96,2.41,6.08,6.91,9.77,7.07
	c5.46,0.24,1.48-12.79,1.11-15.27C713.14,254.93,714.59,249.09,716.18,243.26z"/>
<path class="st14" d="M504.25,324.72c-19.56-0.13-39.1,6.13-54.13,17.35c28.89-8.79,61.83-6.27,88.65,6.76
	c3.63,1.76,7.22,3.74,11.24,4.57c5.19,1.07,11.67-0.25,13.36-5.33c1.32-3.98-1.77-5.64-5.4-7.07c-5.22-2.06-9.76-4.9-14.77-7.31
	c-5.59-2.68-11.51-4.79-17.62-6.3C518.65,325.68,511.46,324.76,504.25,324.72z"/>
<path class="st14" d="M786.95,298.34c13,1.3,23.31,10.53,35.92,13.65c5.29,1.31,10.92,1.53,15.96,3.46
	c7.69,2.95,13.18,10.05,13.56,17.54c-7.15-5.61-17.9-5.21-26.49-8.86c-5.39-2.29-9.85-6.15-15.37-8.18
	c-5.79-2.12-12.31-2.06-18.27-3.78c-5.96-1.72-11.82-6.39-10.97-11.95c0.09-0.61,0.28-1.23,0.68-1.74c1.63-2.09,5.23-1.06,7.82-0.01
	c7.17,2.91,15.04,4.43,22.91,4.41"/>
<path class="st14" d="M881.16,391.12c8.87-2.05,16.54-8.37,25.7-8.11c6.52,0.18,12.43,3.84,16.39,8.48s6.27,10.22,8.45,15.72
	c-9.47-6.25-22.6-1.82-33.84,1.27c-9.2,2.53-18.76,3.99-28.37,4.35c-10.59,0.4-21.88-0.77-30.24-6.6
	c-6.08-4.24-9.78-10.41-12.45-16.77c-1.43-3.4-2.59-6.89-3.74-10.37c-0.64-1.93-1.34-3.88,0.52-5.44c3.19-2.67,9.46-1.37,12.66,0.57
	c2.75,1.66,3.49,4.17,5.04,6.66c2.12,3.39,5.37,5.31,9.38,6.62C859.99,390.53,871.29,393.4,881.16,391.12z"/>
<path class="st15" d="M743.97,272.62c-3.79,0.4-7.88,0.69-11.21-0.98c-4.87-2.45-6.31-8.5-4.45-13.22
	c1.85-4.72,6.21-8.29,10.76-11.19c5.48-3.49,11.93-6.41,18.62-5.83c6.49,0.56,12.89,4.36,19.09,2.55
	c6.22-1.82,8.86-8.31,13.73-12.22c4.28-3.44,10.38-4.92,13.91-8.98c2.89-3.32,4.15-8.36,8.63-9.63c3.52-1,7.48,1.21,8.91,4.26
	c1.43,3.05,0.79,6.61-0.72,9.64c-5.27,10.63-19.3,15.44-26.79,24.94c-4.46,5.66-7,13.06-14.84,15.81c-2.29,0.8-4.77,0.7-7.17,0.94
	c-4.41,0.45-8.79,1.38-13.17,2.02C754.18,271.45,749.08,272.09,743.97,272.62z"/>
<path class="st15" d="M702.1,196.72c-5.07-7.15-14.12-11.91-23.56-12.38c-10.3-0.52-20.09,3.72-29.22,8.02
	c-3.13,1.48-6.39,3.09-8.27,5.78c-2.8,4.01-1.8,9.32-3.92,13.64c-2.3,4.7-7.73,7.37-12.17,10.6c-4.44,3.24-8.35,8.55-6.01,13.23
	c0.36,0.72,0.91,1.43,1.74,1.71c1.04,0.35,2.19-0.06,3.16-0.55c6.91-3.45,10.88-10.52,17.89-13.8c10.89-5.08,24.46,0.77,36.34-2.02
	c3.08-0.72,6.21-2.03,9.31-1.37c3.42,0.73,5.78,3.47,9.42,3.72c2.38,0.16,5.32-0.36,7.1-1.88c3.61-3.06,3.08-9.99,2.5-13.92
	C705.86,203.7,704.41,199.98,702.1,196.72z"/>
<path class="st16" d="M760.61,299c26.37-4.5,54.83,2.08,75.48,17.45c9.84,7.33,19.63,17.13,32.42,16.75"/>
<path class="st16" d="M789.19,339.04c16.34,9.03,29.83,22.14,38.55,37.45c6.74,11.84,13.15,26.83,27.78,29.06
	c11.13,1.69,21.55-5.29,32.75-6.57c9.78-1.12,19.78,2.31,27.28,8.04s12.68,13.58,16.21,21.82"/>
<path class="st16" d="M728.95,271.53c-14.13-5.12-23.68-18.94-22.5-32.56c0.73-8.35,5.03-16.18,5.93-24.52
	c0.53-4.88-0.14-9.86-1.94-14.49c-2.88-7.39-8.94-13.99-17.07-16.88c-8.13-2.88-18.26-1.5-24.24,4.21"/>
<path class="st16" d="M603.07,340.27c-5.9,6.31-14.21,13.31-22.94,10.71c-2.94-0.87-5.34-2.75-7.72-4.53
	c-22.8-17.15-51.33-29.82-81.09-29.1c-29.76,0.71-60.06,17.34-68.34,42.96"/>
<path class="st16" d="M713.25,298.27c-7.79,6.95-15.77,14.16-19.92,23.29c-2.79,6.13-3.68,12.8-5.63,19.19s-5.27,12.85-11.43,16.51"
	/>
<path class="st16" d="M745.85,303.03c-5.33,1.22-10.8,2.49-15.25,5.39c-4.82,3.14-7.99,7.88-10.75,12.61
	c-6.63,11.34-11.87,23.56-21.21,33.25"/>
<path class="st16" d="M664.25,319.65c-5.95,9-18.93,11.35-29.6,15.57c-18.12,7.16-32.1,22.12-37.01,39.31
	c-4.18,14.63-2.19,30.71-9.6,44.27"/>
<path class="st16" d="M559.02,382c-3.92,8.64-7.9,17.61-7.52,26.94c0.47,11.51,7.54,22.13,8.42,33.62
	c1.2,15.69-9.83,30.78-24.82,38.97c-14.99,8.19-33.26,10.34-50.79,9.43"/>
<path class="st16" d="M531.71,365.32c-19.19-6.26-42.06-2.35-57.32,9.81c-15.26,12.16-22.26,32.05-17.55,49.85"/>
<path class="st16" d="M591.71,345c-16.3,3.85-33.67,4.05-50.07,0.57c-12.5-2.65-25.07-7.87-32.21-17.44
	c-7.18-9.61-7.72-22.22-4.52-33.43c3.27-11.46,10.23-22.06,19.83-30.19c6.7-5.68,15.18-10.31,24.41-10.42
	c11.77-0.14,21.93,6.9,31.04,13.58"/>
<path class="st16" d="M624.26,311.78c-13.12-6.45-17.61-21.37-18.33-34.76c-0.65-12.05,0.71-24.19,4.02-35.89
	c2.01-7.11,4.81-14.17,9.62-20.1c4.82-5.93,11.88-10.67,19.96-11.85"/>
<path class="st16" d="M682.32,219.96c-6.89-15.05-4.68-33.16,5.69-46.52c10.36-13.35,28.55-21.53,46.7-20.98"/>
<path class="st16" d="M802.27,214.5c4.07-8.5,6.62-17.58,7.53-26.8c0.98-9.91-0.65-21.2-9.4-27.32c-5.09-3.56-11.93-4.74-18.32-3.94
	s-12.36,3.42-17.61,6.78c-13.09,8.39-22.1,21.72-24.33,36"/>
<path class="st16" d="M791.35,250.51c-1.04-7.41,4.08-14.75,11.15-18.73c7.06-3.98,15.7-5.07,24.04-4.96
	c7.71,0.1,15.56,1.19,22.34,4.48c6.78,3.29,12.36,9.02,13.69,15.82c1.59,8.11-2.87,16.11-7.59,23.18
	c-4.72,7.06-10.01,14.37-10.29,22.6"/>
<path class="st16" d="M857.38,303.94c10.05-2.37,20.58,1.47,29.58,6.12c9.48,4.9,19.15,12.08,19.9,21.86
	c0.79,10.3-8.65,19.08-10.16,29.31"/>
<path class="st16" d="M834.04,378.96c4.65,5.6,6.94,12.44,10.11,18.82c3.17,6.38,7.73,12.74,14.89,15.5
	c10.08,3.87,21.48-0.55,32.42-1.17c11.46-0.64,23.14,3.22,31.38,10.38c8.24,7.16,12.9,17.5,12.53,27.78"/>
<path class="st16" d="M844.86,356.2c7.77,7.68,16.32,14.73,25.5,21.04c4.85,3.33,10.01,6.51,15.93,7.88
	c7.96,1.84,16.37,0.21,24.27-1.81c4.06-1.04,8.44-2.17,12.4-0.86c2.79,0.92,4.93,2.93,6.85,4.96c6.26,6.62,11.29,14.16,14.83,22.23"
	/>
<path class="st16" d="M832.52,305.07c7.24,5.25,15.64,10.81,24.88,9.72c10.12-1.19,16.84-9.85,21.33-18.06"/>
<path class="st16" d="M734.69,310.72c1.35-21.12,21.3-39.08,44.29-43.91c22.99-4.82,47.7,1.95,66.69,14.51"/>
<path class="st16" d="M713.75,320.38c9.92-18.5,15.69-38.77,16.88-59.26c0.67-11.67-0.12-23.37-0.92-35.03"/>
<path class="st16" d="M711.33,281.65c-10.92,3.24-22.52-2.74-31.15-9.56c-5.11-4.04-9.92-8.58-12.76-14.12
	c-5.01-9.75-3.19-21.51,2.39-31.02s14.5-17.08,23.87-23.78"/>
<path class="st16" d="M753.45,260.67c-3.98-6.74-7.51-13.85-8.51-21.42c-1-7.57,0.79-15.72,6.39-21.46
	c8.25-8.46,23.03-10.33,30.34-19.45c5.27-6.58,5.33-15.52,2.98-23.34c-3.89-12.92-14.38-24.5-28.46-28.99"/>
<path class="st16" d="M607.83,315.82c-9.82-2.2-19.92-6.13-25.27-13.83c-5.16-7.44-4.82-17.12-1.46-25.35
	c3.36-8.23,9.39-15.32,15.34-22.28"/>
<path class="st16" d="M575.24,330.44c-11.19-1.2-22.16-4.07-32.31-8.44c-3.95-1.7-7.94-3.76-10.29-7.08
	c-2.73-3.84-2.78-8.7-2.41-13.24c0.7-8.47,2.62-16.85,5.7-24.88"/>
<path class="st16" d="M567.75,362.56c-13.72-13.5-29.65-25.19-47.12-34.59c-6.97-3.75-14.41-7.2-22.5-7.96
	c-7.94-0.75-15.98,1.2-23.09,4.45c-17.12,7.84-29.66,25.12-26.34,42.08"/>
<path class="st16" d="M555.75,393.13c-8.58-9.26-22.51-14.31-35.87-13s-25.73,8.95-31.86,19.66c-4.37,7.63-5.56,16.91-2.04,24.88
	s12.13,14.24,21.69,14.65c9.59,0.41,19.13-4.71,28.44-2.6c8.7,1.98,14.25,9.77,16.63,17.52c2.53,8.24,2.45,17.1-0.22,25.3"/>
<path class="st16" d="M602.68,341.58c-12.38,3.86-20.3,15.23-22.65,26.79s-0.1,23.41,2.15,34.98c5.51,28.4,11.02,56.79,16.54,85.19"
	/>
<path class="st16" d="M564.14,368.16c-4,16.24-8.01,33.07-4.21,49.34c1.76,7.55,5.16,14.7,7.94,22.01
	c5.34,14.04,8.42,29.3,4.54,43.72c-3.88,14.42-15.93,27.75-32.13,30.87"/>
<path class="st16" d="M792.02,347.96c7.48,0.75,13.84,5.54,17.81,11.26c3.96,5.73,5.91,12.36,7.8,18.88
	c2.95,10.16,5.91,20.41,6.6,30.89c0.62,9.34-0.56,18.82,1.54,27.98c2.1,9.16,8.55,18.39,18.68,20.67"/>
<path class="st16" d="M759.55,316.44c-16.69,0.38-32.23,12.03-35.6,26.68c-2.08,9.06,0.1,18.46,3.03,27.32"/>
<path class="st16" d="M760.19,333.65c11.7,4.63,18.07,15.74,24.34,25.73c6.27,9.99,14.81,20.52,27.47,22.19"/>
<path class="st16" d="M692.11,321.65c-9.75,6.5-16.05,16.97-16.75,27.83c-0.7,10.87,4.22,21.92,13.06,29.38"/>
<path class="st16" d="M657.67,326.2c-15.38,6.24-28.23,17.34-35.77,30.87c-5.68,10.2-8.45,21.74-15.75,31.08"/>
<path class="st16" d="M591.93,365.67c-9.45,27.49-10.17,56.69-10.82,85.44"/>
<path class="st16" d="M664.27,301.28c-20.82,1.42-39.84,15.41-45.45,33.42c-3.01,9.66-2.43,19.98-5.09,29.72
	c-2.95,10.79-9.97,20.65-19.64,27.6"/>
<path class="st17" d="M793.93,473.15c-5.41,4.75-14.16,3.89-21.62,2.7c-9.43-1.5-19.24-3.15-26.92-8.29
	c-3.58-2.4-6.57-5.5-8.69-9.02c-2.49-4.13-3.77-8.78-6.19-12.95c-0.35-0.6-0.85-1.26-1.6-1.28c-1.03-0.02-1.51,1.11-1.7,2.01
	c-1.28,6.05-2.56,12.09-3.84,18.14c-0.92,4.33-1.83,8.67-2.06,13.07c-0.21,3.98,0.15,7.96,0.51,11.93
	c0.63,6.99,1.26,13.97,1.89,20.96c0.15,1.72,0.75,3.89,2.66,4.13c3.25-5.1,5.39-10.76,6.27-16.58c0.26-1.73,0.42-3.5,1.2-5.1
	s2.32-3.03,4.26-3.21c1.25-0.12,2.48,0.29,3.63,0.75c6.52,2.66,11.79,7.48,18.5,9.74c3.38,1.14,7,1.58,10.59,1.98
	c4.25,0.48,8.5,0.93,12.76,1.34c2.4,0.23,4.88,0.44,7.16-0.25c4.38-1.34,6.71-5.55,8.25-9.47c2.37-6.07,3.94-12.4,4.72-18.79
	c0.16-1.27,0.28-2.6-0.19-3.81c-0.47-1.21-1.68-2.28-3.11-2.28c-1.1,0-2.07,0.61-2.93,1.23c-2.81,2.03-5.28,4.45-7.28,7.14"/>
<path class="st17" d="M749.65,507.32c-3.26,0.92-5.55,4.05-5.19,7.1c0.09,0.79,0.4,1.63,1.17,2.03c0.83,0.43,1.87,0.18,2.79-0.08
	c1.57-0.45,3.18-0.92,4.42-1.9c1.24-0.97,2-2.59,1.38-3.96c-0.58-1.28-2.12-1.96-3.54-2.51c-1.34-0.53-3.3-0.88-3.95,0.3"/>
<path class="st17" d="M725.57,540.67c-1.19,0.41-2.22,1.14-3.22,1.85c-0.23,0.17-0.47,0.34-0.57,0.6c-0.19,0.5,0.34,1.04,0.92,1.14
	s1.17-0.1,1.73-0.3c1.77-0.64,3.54-1.27,5.31-1.9c3.05-1.09,6.1-2.19,9.14-3.28c0.81-0.29,1.69-0.63,2.1-1.32
	c0.32-0.53,0.3-1.18,0.2-1.78c-0.35-1.95-1.67-4.38-4.06-2.84c-2.28,1.47-3.93,3.68-6.09,5.29
	C729.33,539.41,727.62,539.97,725.57,540.67z"/>
<path class="st17" d="M643.13,478.66c-2.54-0.38-5.94-0.4-6.77,1.78c-0.33,0.87-0.09,1.82,0.17,2.7c1.7,5.84,4.03,11.54,6.94,16.99
	c0.93,1.73,1.97,3.5,3.71,4.63c1.54,1,3.47,1.38,5.36,1.49c6.28,0.35,12.5-2.21,16.94-6.2s7.24-9.26,8.79-14.72
	c0.56-1.97,1-5.06-1.65-6.05c-1.49-0.56-3.23,0.87-4.74,1.01c-2.98,0.29-6.11,0.13-9.1,0.06c-3.1-0.07-6.19-0.23-9.28-0.49
	C650.03,479.58,646.57,479.18,643.13,478.66z"/>
<path class="st17" d="M694.26,455.85c-1.34,1.08-2.68,2.15-4.02,3.23c0.73,0.72,1.57,1.48,2.65,1.57c1.24,0.1,2.33-0.74,3.1-1.62
	c0.62-0.71,1.15-1.58,0.98-2.47c-0.17-0.89-1.4-1.6-2.22-1.09"/>
<path class="st17" d="M777.01,459.94c3.32-0.36,6.81-1.08,9.92,0.04c-2.34,2.82-6.56,3.79-10.47,3.97
	c-4.52,0.21-9.25-0.33-13.49-1.78c-0.48-0.16-1.69-0.46-1.59-1.09c0.08-0.51,1.05-0.78,1.49-0.91c1.92-0.53,4.24-0.04,6.22,0.02
	C771.73,460.27,774.38,460.22,777.01,459.94z"/>
<path class="st17" d="M648.09,536.09c-0.13-1.57-0.38-3.17-1.27-4.53s-2.58-2.39-4.32-2.19c-0.99,0.11-1.86,0.6-2.75,1.01
	c-1.59,0.74-3.29,1.29-5.04,1.63c-1.02,0.19-2.22,0.42-2.66,1.27c-0.37,0.73,0.01,1.57,0.39,2.29c1.71,3.23,3.71,6.61,7.11,8.66
	c2.25,1.35,7.78,3.29,8.44-0.5C648.43,541.26,648.3,538.58,648.09,536.09z"/>
<path class="st17" d="M621.34,544.21c-0.57-0.35-1.33-0.71-1.9-0.36c-0.37,0.22-0.49,0.65-0.57,1.04
	c-1.01,5.39,2.14,10.75,6.2,14.83s9.08,7.33,13.03,11.49c0.88,0.92,2.09,2,3.37,1.58c0.99-0.33,1.36-1.39,1.6-2.31
	c0.66-2.57,1.36-5.23,0.95-7.88c-0.28-1.8-1.04-3.89-2.84-4.91c-0.68-0.39-1.43-0.67-2.1-1.07c-1.09-0.66-2.05-1.5-3.04-2.27
	c-2.22-1.71-4.5-3.36-6.81-4.97C626.65,547.59,624.02,545.87,621.34,544.21z"/>
<path class="st17" d="M778.88,405.3c2.28-0.75,4.71-1.26,6.72-2.49c4-2.46,5.4-7.45,4.17-11.66c-1.23-4.21-4.63-7.67-8.53-10.26
	c-3.9-2.59-8.33-4.45-12.56-6.58c-6.9-3.46-13.35-7.68-19.03-12.61c-4.48-3.89-9.29-8.55-15.53-8.5c-3.04,0.02-5.89,1.2-8.64,2.35
	c-5.17,2.17-10.42,4.4-14.66,7.83c-2.83,2.3-5.13,5.08-7.01,8.06c-3.57,5.63-5.68,12.62-2.81,18.56c1.2,2.47,3.17,4.58,4.59,6.96
	c1.19,1.99,1.99,4.18,3.49,6c1.56,1.9,3.77,3.26,5.77,4.79c4.46,3.42,7.94,7.76,12.23,11.35c3.08,2.58,6.77,4.82,10.92,5.71
	c4.48,0.97,8.74-0.12,12.67-2.08c3.01-1.5,5.99-3.17,8.7-5.09c2.28-1.62,4.41-3.41,6.64-5.09
	C769.92,409.63,774.03,406.89,778.88,405.3z"/>
<path class="st17" d="M711.29,602.74c0.76,1.01,1.71,1.94,2.91,2.52c1.43,0.69,3.12,0.83,4.75,0.77c3.06-0.1,6.41-1.09,7.41-3.96
	c0.75-2.16-0.05-5.01-1.59-6.8c-1.23-1.43-3.11-1.96-5.06-2.1c-2.66-0.2-6.16-0.25-8.29,1.38
	C708.69,596.63,709.53,600.38,711.29,602.74z"/>
<path class="st18" d="M760.5,477.8c8.5,0.89,17.23-0.11,25.21-2.87c1.24-0.43,2.7-1.29,2.41-2.45c-0.29-1.12-1.94-1.37-3.22-1.29
	c-7.05,0.41-13.99,3.16-20.97,2.13c-3.53-0.52-6.77-1.97-9.86-3.52c-1.66-0.83-3.3-1.69-4.95-2.54c-0.85-0.44-1.7-0.88-2.56-1.32
	c-0.36-0.18-0.85-0.51-1.3-0.49c-1.68,0.07-0.56,2.87-0.26,3.6c0.94,2.31,2.54,4.25,4.83,5.65
	C752.71,476.48,756.96,477.8,760.5,477.8z"/>
<path class="st18" d="M771.45,389.58c-3.4,1.01-6.52,2.66-9.69,4.15c-8.53,4.03-17.65,7.06-27.05,9.01
	c0.52-3.29,4.35-5.16,7.73-6.53c4.63-1.87,9.26-3.73,13.89-5.6c4.94-1.99,9.94-4,15.28-4.85c4.98-0.79,11.42-0.66,15.66,2.17
	c-1.07,0.28-2.07,0.33-3.16,0.16c-1.26-0.2-2.47-0.1-3.74,0C777.35,388.33,774.33,388.72,771.45,389.58z"/>
<path class="st18" d="M622.97,400.9c-2.4,3.86-4.8,7.72-7.21,11.58c-1.22,1.96-2.46,3.97-2.96,6.17c3.23,0.38,5.81-2.27,7.71-4.64
	c6.94-8.63,13.88-17.26,20.82-25.9c-0.95-0.34-2.01,0.05-2.93,0.46c-8.56,3.86-15.88,9.89-20.89,17.2"/>
<path class="st18" d="M622.02,418.37c-0.92,1.21-1.87,2.47-2.02,3.93c-0.06,0.6,0.21,1.39,0.88,1.4c0.33,0.01,0.61-0.18,0.86-0.37
	c4.9-3.68,7.06-9.48,11.17-13.87c1.37-1.47,2.99-2.81,3.86-4.55c0.43-0.85,0.61-1.96-0.13-2.62c-0.62-0.55-1.68-0.52-2.45-0.15
	c-1.04,0.51-1.68,1.44-2.26,2.33c-0.75,1.14-1.53,2.28-2.31,3.41c-1.57,2.28-3.18,4.54-4.82,6.78
	C623.88,415.89,622.96,417.13,622.02,418.37z"/>
<path class="st18" d="M640.94,383.37c5.32-1.52,11.07-0.77,16.58,0.06c15.79,2.39,31.49,5.38,47.41,6.96
	c15.92,1.58,32.19,1.71,47.79-1.55c-18.06,6.71-38.47,5.96-57.81,3.37c-19.34-2.59-38.51-6.92-58.06-7.03
	c2.17-2.26,6.02-3.06,9.07-1.89"/>
<path class="st18" d="M641.56,376.56c5.6-0.02,11.19-0.04,16.79-0.06c5.87-0.02,11.79-0.04,17.52,1.11
	c4.55,0.91,8.88,2.54,13.28,3.92c20.3,6.4,42.58,7.7,63.64,3.72c9.38-1.78,18.48-4.57,27.56-7.35c-21.94-0.91-43.66,6.69-65.51,4.67
	c-16.03-1.48-31.05-8.08-47.08-9.54c-6.73-0.61-13.51-0.31-20.26-0.01c-4.47,0.2-9.25,0.49-12.81,2.93c4.1,1.05,8.39,1.5,12.65,1.33
	"/>
<path class="st18" d="M681.09,358.56c1.67,0.61,3.34,1.21,5.01,1.82c0.32-0.72-0.25-1.56-1.03-1.91c-0.78-0.35-1.68-0.33-2.55-0.3
	c-1.23,0.04-2.53,0.1-3.55,0.72c-1.09,0.67-1.64,1.96-1.41,3.12c0.24,1.17,1.21,2.18,2.44,2.62c1.63,0.59,3.65,0.16,4.8-1.02
	c1.15-1.18,1.36-3.04,0.49-4.4"/>
<path class="st18" d="M776.86,386.22c2.6-0.31,5.79-0.06,7,2.02c-4.32,1.45-9.05,1.57-13.54,2.51c-4.37,0.91-8.48,2.58-12.56,4.22
	c-2.06,0.83-4.13,1.66-6.24,2.4c-1,0.35-2,0.68-3.02,0.97c-0.79,0.23-2.12,0.81-2.95,0.73c-1.2-0.12,0.21-1.29,0.64-1.66
	c1.32-1.12,2.83-1.66,4.48-2.29c4.08-1.56,8.03-3.36,12.08-4.97C767.26,388.36,771.95,386.8,776.86,386.22z"/>
<path class="st18" d="M630.48,480.77c0.9,0.96,1.65,2.29,1.07,3.42c-0.49,0.95-1.78,1.39-2.94,1.28c-1.16-0.11-2.2-0.66-3.17-1.23
	c-5.26-3.14-9.43-7.51-13.82-11.58c-1.37-1.27-3.16-2.63-5.08-2.21c0.1-1.64,2.02-2.83,3.86-2.86c1.84-0.03,3.55,0.79,5.07,1.72
	c1.52,0.92,2.98,1.98,4.71,2.53c2.51,0.79,5.27,0.39,7.92,0.21c4.39-0.3,8.84,0.04,13.11,0.98c0.51,0.11,1.05,0.23,1.53,0.04
	c0.77-0.3,0.95-1.26,0.59-1.94s-1.08-1.13-1.78-1.55c-2.3-1.39-4.69-2.81-7.42-3.21c-2.23-0.33-4.51,0.05-6.77,0.03
	c-4.37-0.05-8.52-1.6-12.79-2.4c-1.41-0.26-2.9-0.44-4.29-0.08c-2.16,0.56-3.5,2.56-2.27,4.41c1.08,1.62,3.34,2.85,5.38,3.19
	c1.74,0.29,3.39,0.18,4.99,0.98c2.07,1.04,3.95,2.57,5.94,3.75C626.54,477.58,628.77,478.93,630.48,480.77z"/>
</svg>
