<svg width="100%" height="100%" viewBox="0 0 214 71" version="1.1" xmlns="http://www.w3.org/2000/svg" xmlns:xlink="http://www.w3.org/1999/xlink" xml:space="preserve" xmlns:serif="http://www.serif.com/" style="fill-rule:evenodd;clip-rule:evenodd;stroke-linecap:round;stroke-miterlimit:7;">
    <g id="Artboard1" transform="matrix(0.330447,0,0,0.160749,-323.654,-245.287)">
        <rect x="979.442" y="1525.9" width="647.176" height="440.504" style="fill:none;"/>
        <g>
            <g transform="matrix(3.0262,0,0,6.22086,973.518,1525.9)">
                <path d="M45.862,34.808C45.244,32.966 43.811,31.511 41.979,30.863C39.378,29.944 35.851,28.696 35.035,28.408C34.919,28.367 34.802,28.331 34.683,28.3C33.518,27.997 26.923,26.278 23.43,25.369C22.031,25.004 20.547,25.16 19.254,25.806C15.946,27.46 9.327,30.77 5.429,32.719C4.789,33.039 4.365,33.673 4.316,34.388C4.266,35.102 4.598,35.789 5.188,36.194C8.403,38.405 13.678,42.032 17.302,44.523C19.744,46.202 22.905,46.421 25.556,45.096C28.757,43.495 32.863,41.442 34.599,40.574C35.151,40.298 35.745,40.113 36.356,40.026C37.441,39.871 39.292,39.606 40.864,39.382C42.668,39.124 44.276,38.107 45.282,36.587C45.713,35.935 46.063,35.405 46.063,35.405C46.063,35.405 45.982,35.164 45.862,34.808Z" style="fill:none;"/>
            </g>
            <g transform="matrix(3.0262,0,0,6.22086,972.357,1525.9)">
                <path d="M45.862,34.808C45.244,32.966 43.811,31.511 41.979,30.863C39.378,29.944 35.851,28.696 35.035,28.408C34.919,28.367 34.802,28.331 34.683,28.3C33.518,27.997 26.923,26.278 23.43,25.369C22.031,25.004 20.547,25.16 19.254,25.806C15.946,27.46 9.327,30.77 5.429,32.719C4.789,33.039 4.365,33.673 4.316,34.388C4.266,35.102 4.598,35.789 5.188,36.194C8.403,38.405 13.678,42.032 17.302,44.523C19.744,46.202 22.905,46.421 25.556,45.096C28.757,43.495 32.863,41.442 34.599,40.574C35.151,40.298 35.745,40.113 36.356,40.026C37.441,39.871 39.292,39.606 40.864,39.382C42.668,39.124 44.276,38.107 45.282,36.587C45.713,35.935 46.063,35.405 46.063,35.405C46.063,35.405 45.982,35.164 45.862,34.808Z" style="fill:rgb(255,235,0);"/>
            </g>
            <g transform="matrix(2.22983,0,0,4.58379,1005.24,1583.87)">
                <path d="M46.063,35.405C45.317,33.186 43.592,31.434 41.386,30.653C38.933,29.786 35.946,28.73 35.097,28.43C34.94,28.374 34.781,28.325 34.62,28.283C33.391,27.963 27.753,26.495 24.205,25.57C22.306,25.076 20.292,25.287 18.537,26.164C15.391,27.737 10.179,30.343 6.524,32.171C5.655,32.605 5.081,33.467 5.013,34.436C4.946,35.405 5.396,36.338 6.197,36.888C8.985,38.805 12.797,41.426 15.889,43.551C19.203,45.83 23.493,46.128 27.09,44.329C29.786,42.981 32.733,41.508 34.301,40.723C35.051,40.349 35.856,40.097 36.686,39.979C37.535,39.857 38.708,39.69 39.851,39.526C42.3,39.177 44.482,37.796 45.846,35.733C45.98,35.53 46.063,35.405 46.063,35.405C46.063,35.405 46.063,35.405 46.063,35.405Z" style="fill:rgb(224,130,130);stroke:rgb(255,235,0);stroke-width:1.36px;"/>
            </g>
            <g transform="matrix(1.71757,0,0,-2.4301,1019.82,1829.76)">
                <path d="M46.063,35.405C45.315,33.178 43.923,31.551 42.266,30.965C39.697,30.056 36.03,28.76 35.088,28.427C34.937,28.373 34.785,28.326 34.631,28.287C33.398,27.965 27.491,26.426 23.953,25.505C22.187,25.045 20.369,25.249 18.672,26.097C16.588,27.139 13.538,28.664 10.637,30.114C9.267,30.799 8.319,32.622 8.239,34.724C8.159,36.827 8.963,38.79 10.273,39.691C12.198,41.014 14.211,42.398 15.98,43.614C19.365,45.941 23.242,46.253 26.783,44.482C29.565,43.092 32.685,41.532 34.311,40.719C35.056,40.346 35.83,40.101 36.614,39.989C37.581,39.851 38.997,39.648 40.309,39.461C42.498,39.148 44.538,37.71 46.062,35.407C46.063,35.406 46.063,35.405 46.063,35.405C46.063,35.405 46.063,35.405 46.063,35.405Z" style="fill:rgb(255,235,0);stroke:rgb(224,130,130);stroke-width:2.05px;"/>
            </g>
        </g>
        <g transform="matrix(3.0262,0,0,6.22086,961.413,1525.9)">
            <path class="rocket" d="M214.457,42.048C216.675,40.568 218.007,38.076 218.005,35.409C218.004,32.742 216.67,30.252 214.449,28.773C207.092,23.874 197.512,17.495 192.455,14.127C190.187,12.617 187.522,11.811 184.797,11.811C167.998,11.811 106.299,11.811 106.299,11.811L94.488,0L48.425,0L51.969,11.811L51.969,23.622L47.244,23.622L47.244,28.346L42.52,28.346L42.52,41.339L47.244,41.339L47.244,47.244L51.67,47.244L51.969,59.055L47.244,70.811L94.488,70.811L106.299,59.055L185.731,59.055C187.847,59.055 189.916,58.428 191.676,57.254C196.471,54.053 206.701,47.225 214.457,42.048Z" style="fill:rgb(204,0,255);"/>
        </g>
    </g>
</svg>