<?xml version="1.0" encoding="utf-8"?>
<!-- Generator: Adobe Illustrator 25.1.0, SVG Export Plug-In . SVG Version: 6.00 Build 0)  -->
<svg version="1.1" xmlns="http://www.w3.org/2000/svg" xmlns:xlink="http://www.w3.org/1999/xlink" x="0px" y="0px"
	 viewBox="0 0 388 415" style="enable-background:new 0 0 388 415;" xml:space="preserve">
<style type="text/css">
	.st0{fill:#35271C;}
	.st1{fill:#2C2417;}
	.st2{fill:#947A6B;}
	.st3{fill:#A68D77;}
	.st4{fill:#706563;}
	.st5{fill:#25251D;}
	.st6{fill:#BBAAA0;}
	.st7{fill:none;stroke:#FFFFFF;stroke-miterlimit:10;}
	.st8{fill:#D9C7B9;}
	.st9{fill:#594739;}
	.st10{fill:#2E2623;}
	.st11{fill:#110D0A;}
	.st12{fill:#745B47;}
	.st13{fill:#A08A7C;}
	.st14{fill:#121210;}
	.st15{fill:#0C0A0B;}
	.st16{fill:#171516;}
	.st17{fill:#FFFFFF;}
	.st18{stroke:#000000;stroke-miterlimit:10;}
	.st19{fill:#B26952;}
	.st20{fill:#B5B2B0;}
	.st21{opacity:0.35;fill:#AA9999;}
	.st22{opacity:0.52;fill:#FFFFFF;}
	.st23{fill:#4D4D4D;}
	.st24{display:none;}
	.st25{fill:#947A6B;stroke:#000000;stroke-miterlimit:10;}
	.st26{fill:#A68D77;stroke:#000000;stroke-miterlimit:10;}
</style>
<g id="Lager_25">
	<path class="st0" d="M95.45,340.21c6.15,12.9,3.32,29.72,12.77,40.45c5.43,6.16,13.78,8.8,21.84,10.37
		c15.7,3.06,31.81,3.08,47.8,2.95c40.29-0.32,80.57-1.5,120.81-3.56c5.79-0.3,12.17-0.87,16.17-5.06
		c4.52-4.73,4.24-12.13,3.67-18.64c-1.35-15.39-2.7-30.79-4.04-46.18c-1.12-12.83-2.26-25.72-5.32-38.23
		c-2.63-10.72-6.66-21.07-8.88-31.89c-3.18-15.51-2.57-31.72-7.03-46.9c-4.07-13.88-12.16-26.21-20.8-37.8
		c-14.12-18.95-31.18-37.36-53.75-44.4c-27.1-8.45-56.81,1.32-80.85,16.43c-8.97,5.64-17.64,12.19-23.63,20.93
		c-11.54,16.85-11.39,38.75-16.08,58.63c-3.8,16.1-10.97,31.31-13.88,47.59c-5.96,33.36,6.44,66.97,18.63,98.6"/>
	<path class="st1" d="M258.27,317.16c2.91,1.78,5.92,3.5,8.29,5.95c2.66,2.75,4.39,6.27,5.67,9.87c2.75,7.74,3.4,16.97-1.35,23.67
		c-3.13,4.41-8.41,7.49-9.87,12.7c-9.83-7.41-23.28-9.28-32.2-17.77c-9.27-8.82-11.45-22.64-12.2-35.42
		c-0.47-8.01-0.56-16.21,1.9-23.84c1.14-3.55,3.57-7.95,7.95-7.61c3.32,0.25,6.5,3.96,7.66,6.88c1.01,2.55,1.17,5.35,2.32,7.86
		c1.75,3.82,5.27,6.34,8.56,8.77C249.28,311.4,253.71,314.38,258.27,317.16z"/>
	<path class="st2" d="M285.2,324.07c-1.15-0.23-2.31-0.42-3.48-0.53C282.87,323.8,284.03,323.97,285.2,324.07z"/>
	<path class="st2" d="M354.47,388.32c-1.35-0.43-2.81-0.21-4.2,0.03c2.08-0.63,4.17-1.26,6.25-1.9c-3.41-2.35-6.82-4.7-10.23-7.04
		c3.02-0.16,6.04-0.32,9.05-0.48c-1.4-0.74-2.79-1.47-4.19-2.21c1.75,0.23,3.56-0.06,5.15-0.84l-9.07-3.51
		c0.9-0.57,2.13-0.52,3.02,0.04c-2.69-2.11-5.39-4.23-8.08-6.34c1.05-0.64,1.44-2.15,0.85-3.22c2.19,4.4,7.45,7.05,12.29,6.17
		c-6.21-1.08-10.6-6.45-14.62-11.31c-4.02-4.86-9.01-9.93-15.31-9.99c1-0.52,1.99-1.04,2.99-1.56c-0.67-0.39-1.47-0.55-2.25-0.45
		c2.8-0.77,5.59-1.54,8.39-2.31l-7.55-0.21c1.17-0.99,2.35-1.98,3.52-2.97l-7.61-1.94l11.29-3.6c-3.42-1.1-7.06-1.51-10.64-1.2
		c4.67-1.16,9.28-2.58,13.79-4.27c-3.33-0.62-6.62-1.42-9.86-2.39c2.12-1.44,3.85-3.47,4.93-5.79c-3.18-0.26-6.41,0.06-9.49,0.92
		c3.72-1.74,7.44-3.48,11.17-5.22c-2.54-0.67-5.2-0.87-7.81-0.6c2.48-0.49,4.96-0.98,7.44-1.47c-2.45-0.59-4.9-1.17-7.35-1.76
		c5.17-0.46,10.31-1.24,15.38-2.33c-5.86-3.06-12.58-4.47-19.17-4.03c1.27-0.61,2.54-1.23,3.81-1.84c-1.86-0.17-3.73-0.33-5.59-0.5
		c0.79-0.88,1.57-1.77,2.36-2.65c-1.48,0.03-2.95,0.07-4.43,0.1c3.04-1.47,6.26-2.57,9.55-3.3c-0.12-0.07-0.24-0.12-0.35-0.2
		c-0.48-0.32-0.94-0.65-1.38-0.98c-2.85-0.22-5.7-0.44-8.55-0.66c1.95-0.55,3.9-1.11,5.85-1.66c-1.69-1.68-2.97-3.46-3.88-5.39
		c-1.72-0.72-3.16-2.3-3.36-4.47c-0.01-0.09,0-0.17-0.01-0.26c-0.32-0.47-0.55-1.03-0.64-1.66c-0.18-0.43-0.29-0.91-0.34-1.44
		c-0.87,0.11-1.75,0.2-2.62,0.24c0.82-1.36,1.64-2.71,2.46-4.07c-0.01-0.14-0.01-0.29-0.02-0.43c-0.17-0.2-0.31-0.41-0.44-0.64
		c-1.67,0.24-3.34,0.48-5.01,0.73c1.6-1.83,3.21-3.66,4.81-5.48c0-0.03,0-0.05,0.01-0.08c-1.85,0.12-3.7,0.25-5.55,0.37
		c1.97-1.54,3.94-3.08,5.91-4.63c0.01-0.14,0.01-0.28,0.02-0.41c-1.46,0.5-3,0.78-4.55,0.79c1.88-1.87,3.77-3.74,5.65-5.61
		c-2.46,0.13-4.92,0.26-7.37,0.38c1.66-2,3.32-4.01,4.98-6.01c-1.49,0.22-2.98,0.44-4.47,0.66c1.47-0.92,2.94-1.84,4.4-2.75
		c-1.43-0.03-2.86-0.3-4.19-0.81c1.67-2.05,3.35-4.09,5.02-6.14c-3.49-0.41-7.07-0.11-10.45,0.87c2.06-1.7,4.12-3.4,6.18-5.1
		c-3.36,1.04-6.81,1.79-10.29,2.26c6.73-4.49,13.46-8.97,20.18-13.46c-6.04-0.01-12.09,1.07-17.75,3.17
		c2.77-2.45,5.54-4.91,8.31-7.36c-2.65-0.12-5.32,0.14-7.89,0.77c1.68-1.16,3.2-2.56,4.49-4.14c-1.62-0.38-3.33-0.37-4.94,0.02
		c0.71-0.17,1.85-1.68,2.41-2.18c0.82-0.74,1.76-1.46,2.49-2.28c-1.7-0.33-3.49-0.21-5.19-0.54c1.06-1.35,3.67-2.78,2.89-4.89
		c-1.11-3.01-6.46-3.46-9.07-3.39c-5.27,0.14-10.46,2.93-15.01,5.36c4.14-0.86,8.28-1.72,12.43-2.57
		c-4.28,2.31-8.34,5.01-12.13,8.06c2.88-2.2,6.65-3.22,10.25-2.75c-0.37,1.91-1.49,3.67-3.07,4.82c1.92-0.29,3.92,0.05,5.64,0.95
		c-0.51,0.62-1.02,1.25-1.54,1.87c1.44,0.21,2.8,0.94,3.75,2.04c-0.54,0.99-1.09,1.97-1.63,2.96c0.93,0.26,1.87,0.52,2.8,0.77
		c-0.47,1.11-0.95,2.23-1.42,3.34c0.82,0.46,1.64,0.93,2.46,1.39c-0.55,1.01-1.42,1.85-2.46,2.35c0.89,0.32,1.77,0.65,2.66,0.97
		c-3.25,3.63-7.09,6.73-11.32,9.15c1.69,0.3,3.38,0.59,5.07,0.89c-0.64,1.23-1.27,2.46-1.91,3.68c1.7-1.01,3.39-2.02,5.09-3.04
		c-0.74,0.49-1.24,1.34-1.32,2.22c1.43,0.08,2.93,0.19,4.11,0.99c1.18,0.8,1.85,2.55,1,3.7c0.91,0.27,1.82,0.54,2.74,0.82
		c-0.42,0.7-0.85,1.41-1.27,2.11c1.07,0.53,1.26,2.24,0.33,2.99c0.26,1.28,0.53,2.56,0.79,3.84c-0.42,0.67-0.84,1.33-1.26,2
		c1.26,0.11,2.48,0.6,3.47,1.37c-2.43,1.37-4.86,2.74-7.29,4.1c2.88,0.21,5.77,0.42,8.65,0.63c-3.89,1.42-7.78,2.83-11.67,4.25
		c2.4,0.29,4.8,0.59,7.2,0.88c-0.74,0.81-1.66,1.44-2.68,1.84c1.48,1.39,2.95,2.78,4.43,4.17c-1.84-0.54-3.68-1.09-5.52-1.63
		c2.92,2.88,5.83,5.76,8.75,8.64c-4.42,0.93-9.25-0.44-12.53-3.55c1.93,3.61,5.87,6.06,9.96,6.2c-4-0.24-7.93-1.51-11.31-3.65
		c5.36,3.95,10.29,8.48,14.68,13.49c-4.28-0.8-8.42-2.34-12.18-4.54c1.37,1.29,2.74,2.58,4.11,3.87c-0.8-0.63-1.86-0.92-2.87-0.76
		c0.94,2.23,2.83,4.05,5.1,4.89c-0.94-0.15-1.93,0.01-2.76,0.47c1.2,1.31,2.69,2.34,4.33,3.01c-4.82-1.45-9.63-2.89-14.45-4.34
		c1.56,2.82,4.03,5.1,6.92,6.53c-2.45-0.75-4.89-1.5-7.34-2.25c3.84,1.71,7.16,4.56,9.44,8.09c-3.83-0.52-7.75-0.31-11.5,0.61
		c2.53,0.27,5.06,0.53,7.59,0.8c-2.65,0.61-5.4,0.79-8.11,0.55c5.88,1.18,11.44,3.94,15.88,7.97c-2.8-0.78-5.6-1.55-8.4-2.33
		c1.53,2.09,3.63,3.75,6.02,4.75c-0.78-0.47-1.84-0.44-2.6,0.07c1.89,0.86,3.78,1.72,5.66,2.58c-5.41-1.07-10.76-2.45-16.01-4.12
		c5.21,8.17,17.52,8.22,24.43,15c-3.57-0.08-7.14-0.16-10.72-0.24c1.11,1.22,2.22,2.44,3.33,3.67l-5.63-2.7
		c1.47,1.62,2.94,3.23,4.41,4.85c-3.57,0.09-7.16-1.27-9.78-3.7c3,3.57,7.67,5.14,11.92,7.07c4.24,1.93,8.63,4.86,9.67,9.4
		c-2.75-1.07-5.51-2.14-8.26-3.21c0.26,0.85,0.53,1.7,0.79,2.55c-0.82,0.32-1.12,1.52-0.77,2.33c-0.96-0.71-2.11-1.14-3.3-1.21
		c-1.13,1.52-0.08,3.64,0.97,5.21c2.71,4.06,5.42,8.13,8.13,12.19c-4.33-0.73-8.49-2.48-12.04-5.06c1.62,4.16,4.48,7.83,8.13,10.41
		c-3.58-0.45-7.17-0.9-10.75-1.35c1.76,2.2,4.86,2.66,7.66,2.97c10.21,1.13,20.42,2.26,30.63,3.4c6.28,0.7,12.75,1.38,18.82-0.38
		c1.46-0.42,3.09-1.23,3.35-2.72C356.99,390.08,355.82,388.76,354.47,388.32z"/>
	<path class="st3" d="M182.55,127.44c-3.13-2.01-7.04-2.29-10.76-2.14l-19.39-0.34c-13.39,1.69-23.12,13.13-31.46,23.75
		c-1.34,1.71-2.68,3.42-4.02,5.13c-1.95,1.12-3.9,2.24-5.85,3.36c1.23,0.28,0.72,2.37-0.48,2.76c-1.2,0.39-2.5-0.12-3.76-0.11
		c-1.26,0.01-2.74,1.14-2.21,2.29c0.69,0.87,1.38,1.75,2.07,2.62c-2.17,1.13-4.5,1.95-6.9,2.43c1.59-0.14,1.21,2.49,0.19,3.72
		c-1.38,1.68-2.77,3.36-4.15,5.04c1.91-0.07,1.22,3.06-0.13,4.42c1.11,0.24,2.21,0.49,3.32,0.73c-2.37,4.98-6.19,9.25-10.88,12.15
		c2.48-0.47,5.18,0.73,6.5,2.89c-1.82,1.66-1.99,4.8-0.37,6.65c-1.63,0.84-3.26,1.69-4.88,2.53c1.93,0.47,3.87,0.95,5.8,1.42
		c-1.91,1.62-3.83,3.24-5.74,4.87c1.23,0.03,2.47,0.06,3.7,0.09c-2.47,1.01-4.93,2.02-7.4,3.02c3.09,0.05,6.17,0.11,9.26,0.16
		c0.7,0.48,0.44,1.57,0.02,2.31c-0.41,0.74-0.9,1.65-0.45,2.37c0.01,0.02,0.04,0.03,0.05,0.05c-2.58,1.68-5.16,3.36-7.74,5.04
		c2.96-0.27,5.98,0.14,8.76,1.17c-3.43,1.35-6.45,3.73-8.57,6.75c-3.72,1.62-7.43,3.24-11.15,4.86c3.26,0.23,6.52,0.47,9.79,0.7
		c-1.05,1.09-2.1,2.19-3.15,3.28c1.02-0.17,1.7,1.23,1.3,2.18c-0.4,0.95-1.4,1.48-2.33,1.93c0.58,2.95-0.35,6.15-2.43,8.33
		c0.94,0.53,1.88,1.07,2.82,1.6c-1.95,1.68-4.15,3.06-6.51,4.08c1.03,0.81,2.05,1.61,3.08,2.42c-2.76,0.41-5.43,1.44-7.73,3.01
		c1.67,0.72,3.33,1.44,5,2.16c-2.25,0.76-4.51,1.52-6.76,2.28c1.54-0.07,3.11,0.59,4.12,1.75c-1.03,1.08-2.07,2.16-3.1,3.24
		c-0.16,0.67-0.32,1.33-0.48,2c1.69-0.38,3.42-0.6,5.16-0.64c-2.18,2.01-4.36,4.02-6.55,6.03c-0.09,0.34-0.18,0.68-0.28,1.02
		c1.48-0.22,2.99-0.17,4.44,0.19c-1.95,1.93-3.89,3.86-5.84,5.79c-0.12,0.69-0.25,1.38-0.37,2.07c1.07-0.7,2.15-1.4,3.22-2.1
		c-1.14,1.53-2.35,3.01-3.61,4.44c-0.25,1.57-0.47,3.14-0.63,4.72c-0.01,0.12-0.05,0.21-0.07,0.32c0.4-0.1,0.79-0.19,1.19-0.27
		c-0.48,0.83-1.09,1.57-1.8,2.21c-0.08,0.44-0.17,0.88-0.25,1.33c0.69-0.14,1.37-0.27,2.06-0.41c-0.77,0.61-1.55,1.21-2.32,1.82
		c0,0.02-0.01,0.05-0.01,0.07c-0.31,1.61-1.33,2.64-2.59,3.16c0.99,0.02,1.98,0.17,2.93,0.45c-1.66,0.53-3.14,1.58-4.19,2.97
		c1.54,0.09,3.03,0.87,3.99,2.08c-0.94,1-1.89,2.01-2.83,3.01c-1,0.31-1.97,0.71-2.89,1.23c2.31,0.47,4.61,0.94,6.92,1.4
		c-1.97,2.03-3.6,4.39-4.81,6.94l7.93-2.16c-5.4,3.38-10.24,7.66-14.26,12.61c3.75-0.63,7.36-2.12,10.46-4.34
		c-1.95,3.38-4.92,6.16-8.43,7.86c5.41-1.7,10.83-3.4,16.24-5.1c-2.42,1.96-4.61,4.22-6.51,6.7l8.5-0.61
		c-1.66,3.03-3.32,6.06-4.98,9.09c1.3-0.73,2.77-1.17,4.26-1.27l-2.86,4.9c2.52-2.28,5.7-3.84,9.05-4.44
		c-2.77,4.85-5.53,9.7-8.3,14.54c4.19-4.45,8.92-8.38,14.06-11.69c-2.5,5.03-5,10.06-7.5,15.1c3.22-2.26,6.66-4.21,10.26-5.8
		c-2.66,3.99-4.74,8.36-6.16,12.94c2.88-2.07,5.4-4.63,7.42-7.54l-5.05,11.5c8.43-10.94,17.74-21.21,27.8-30.67
		c-0.2-0.35,0.08-0.85,0.37-1.19c2.69-3.14,5.37-6.29,8.06-9.43c-1.85-0.15-3.7-0.31-5.55-0.46c1.96-2.56,4.35-4.79,7.04-6.57
		c-4,1.82-8.01,3.64-12.01,5.46c3.83-3.92,7.67-7.85,11.5-11.77l-3.08,0.57c1.01-1.32,2.02-2.64,3.03-3.95
		c-2.55,0.66-5.1,1.33-7.66,1.99c-0.03-1.81,0.48-3.63,1.44-5.17c-1.93,0.93-4.11,1.34-6.24,1.17c1.33-2.1,2.66-4.19,3.99-6.29
		c-2.22,1.5-5.21,1.77-7.66,0.69c4.24-4.89,8.48-9.79,12.72-14.68c-6.4,3.27-12.79,6.54-19.19,9.81
		c6.49-6.32,12.99-12.63,19.48-18.95c-2.69,0.77-5.37,1.54-8.06,2.3c2.12-2.65,4.25-5.3,6.37-7.95c-0.73-0.6-1.8,0.12-2.4,0.85
		c-0.6,0.73-1.42,1.62-2.32,1.3c-0.29-0.1-0.37-0.36-0.33-0.63c-1.17,0.64-2.49,1-3.82,1.02c1.69-1.97,3.37-3.93,5.06-5.9
		c-5.9,1.31-11.5,3.92-16.31,7.57c3.33-4.31,6.65-8.62,9.98-12.92c-5.75,1.56-11.15,4.41-15.69,8.26
		c3.47-5.47,7.7-10.45,12.53-14.76l-9.87,3.19c2.73-2.89,5.46-5.78,8.2-8.68c-3.61,1.06-7.21,2.11-10.82,3.17
		c1.43-1.53,2.86-3.07,4.29-4.6l-7.51,1.27c6.64-6.2,15.3-10.2,24.33-11.23c-2.41-0.26-4.82-0.53-7.23-0.79
		c1.22-0.42,2.59-0.97,3.04-2.18c0.44-1.21-1.11-2.81-2.05-1.92c1.18-1.32,2.36-2.63,3.54-3.95c-2.8-0.04-5.61,0.4-8.26,1.29
		c1.66-1.48,3.33-2.97,4.99-4.45c-2.24-0.92-4.74-1.18-7.12-0.74l5.4-6.05c-1.97,1-4.1,1.68-6.28,2.03
		c3.79-3.75,7.57-7.49,11.36-11.24c-2.21,0.42-4.42,0.85-6.63,1.27c1.91-1.93,3.83-3.86,5.74-5.79c-1.04,0.56-2.24,0.81-3.42,0.69
		c2.45-1.88,4.31-4.5,5.28-7.43c-1.19-0.35-2.38-0.7-3.58-1.05c1.6-1.71,3.99-2.61,5.34-4.52c2.33-3.3,0.6-7.77-0.12-11.74
		c-1.88-10.31,4.04-20.81,12.3-27.27c8.26-6.45,18.55-9.64,28.61-12.56c10.07-2.92,20.39-5.8,29-11.79
		c1.59-1.11,3.17-2.39,3.97-4.16C187.67,133.62,185.68,129.44,182.55,127.44z"/>
	<path class="st4" d="M272.02,125.66c0.06-2.52,0.98-5.08,0.31-7.51c-1.13-4.12-5.98-5.75-10.14-6.73
		c-5.34-1.26-10.67-2.53-16.01-3.79c-10.1-2.39-20.61-4.8-30.77-2.66c-4.34,0.91-8.51,2.64-12.92,3.19
		c-7.21,0.89-14.38-1.43-21.54-2.65c-5.75-0.98-11.62-1.25-17.43-0.8c-3.99,0.31-7.98,0.96-11.74,2.31
		c-8.02,2.87-14.68,8.8-19.64,15.72c-4.96,6.92-8.36,14.83-11.35,22.8c-0.59,1.58-1.15,3.45-0.22,4.86
		c1.23,1.88,4.03,1.55,6.21,1.01c13.83-3.47,27.69-6.96,41.09-11.83c5.4-1.96,11.56-4.12,16.63-1.43c1.54,0.82,3.09,2.09,4.8,1.75
		c1.63-0.32,2.59-1.97,3.38-3.44c1.12-2.09,2.38-4.21,4.35-5.53c1.97-1.31,4.86-1.56,6.58,0.07c2.52,2.37,1.3,7.03,3.75,9.46
		c1.83,1.81,4.77,1.53,7.35,1.44c11.4-0.4,22.05,5.43,31.53,11.78c2.36,1.58,4.77,3.24,7.55,3.83c2.8,0.6,5.69,0.06,8.5-0.48
		c3.56-0.68,7.18-1.23,10.69-2.08c1.97-0.48,3.95-1.42,4.71-3.43c0.71-1.88,0.28-4.04-0.22-5.91c-0.76-2.89-1.91-5.68-2.83-8.52
		C273.5,133.46,271.93,129.49,272.02,125.66z"/>
	<path class="st1" d="M198.81,336.46c0.83-2.09,1.66-4.18,2.19-6.37c0.56-2.33,0.77-4.75,1.43-7.05c1.81-6.25,6.77-11.08,9.35-17.05
		c0.62-1.43,1.09-3.11,0.39-4.5c-0.51-1.01-1.52-1.64-2.36-2.39c-3.96-3.5-4.29-9.45-4.55-14.73c-0.26-5.16-0.73-10.32-1.41-15.44
		c-0.2-1.53-0.46-3.13-1.41-4.35c-1.44-1.84-4.17-2.27-6.4-1.55c-2.22,0.72-4.01,2.38-5.55,4.14c-1.03,1.18-2.01,2.46-2.53,3.94
		c-1.24,3.53,0.3,7.4,0.17,11.14c-0.19,5.48-3.9,10.15-7.59,14.2c-3.6,3.95-7.37,7.74-11.29,11.36
		c-7.38,6.81-15.41,13.15-20.96,21.52c-0.7,1.05-1.37,2.17-1.51,3.42c-0.15,1.35,0.33,2.69,0.83,3.95
		c4.44,11.12,11.27,21.27,19.9,29.57c1.24,1.19,2.54,2.36,4.12,3.04c6,2.57,11.88-2.63,14.95-7.27c2.85-4.31,5.55-8.88,7.5-13.67
		C195.68,344.42,197.23,340.43,198.81,336.46z"/>
	<path class="st1" d="M219.15,343.86c3.9-2.09,3.58-7.66,2.95-12.03c-1.42-9.82-1.65-19.81-0.69-29.69c1.7,0.01,2.1,3.32,3.75,2.97
		c0.65-0.14,1.01-0.82,1.26-1.44c4.78-11.5,4.03-25.16-1.97-36.07c-1.69-3.07-4.88-6.31-8.16-5.07c-1.06,0.4-1.91,1.24-2.55,2.18
		c-1.96,2.9-2.01,6.64-1.99,10.14c0.05,10.92,0.1,21.83,0.16,32.75c0.02,4.43-0.08,8.88,1.59,13.04c1.85,4.62,2.82,9.78,3.9,14.62
		c0.33,1.45,0.64,2.91,0.93,4.37C218.42,340.07,219.34,343.76,219.15,343.86z"/>
	<path class="st5" d="M197.25,124.78c0.52-0.16,1.07-0.25,1.59-0.11c0.73,0.2,1.27,0.81,1.76,1.39c1.69,2.02,3.44,4.17,3.92,6.76
		c0.35,1.95-0.06,3.95-0.26,5.92c-1.08,10.51,3.86,21.07,2.12,31.5c2.25-3.21,5.78-5.23,9.19-7.15c3.6-2.02,7.38-4.1,11.51-4.2
		c8.82-0.21,15.28,8.37,23.71,10.95c2.46,0.75,5.05,0.98,7.58,1.46c9.5,1.81,18.21,7.42,23.79,15.32c2.01,2.85,3.65,6.04,4.21,9.48
		c0.84,5.12-0.77,10.41-3.51,14.81s-6.54,8.04-10.42,11.48c-13.81,12.21-29.19,22.5-44.52,32.74c-1.14,0.76-2.37,1.55-3.75,1.56
		c-3.39,0.01-6.05-4.7-9.19-3.42c-0.52,0.21-1.01,0.59-1.57,0.58c-0.97-0.01-1.52-1.1-1.84-2.03c-0.53-1.52-1.06-3.04-1.59-4.56
		c-0.33-0.96-0.67-2.02-0.28-2.95c0.46-1.12,1.74-1.61,2.88-2.02c6.61-2.37,12.75-6.04,17.97-10.74c1.7-1.53,3.35-3.19,5.44-4.11
		c4.34-1.91,9.77-0.26,13.87-2.65c1.12-0.65,2.13-1.7,2.28-2.99c0.3-2.65-2.96-4.25-5.63-4.35c-2.35-0.08-5.16,0.17-6.58-1.71
		c-1.69-2.23,0.07-5.37-0.02-8.17c-0.06-1.85-0.97-3.55-1.86-5.17c-3.75-6.83-7.84-13.84-14.3-18.21
		c-6.45-4.37-15.96-5.25-21.63,0.09c-1.54,1.45-2.71,3.26-4.23,4.73c-0.4,0.39-0.94,0.78-1.46,0.58c-0.35-0.13-0.55-0.49-0.72-0.82
		c-1.76-3.36-3.54-6.77-4.45-10.47c-0.98-3.96-0.57-7.93,0.38-11.85c1.36-5.59,3.46-11.03,3.45-16.86c0-1.39-0.08-2.78-0.16-4.17
		c-0.11-1.95,0-4.08-0.36-5.99c-0.74-0.02-1.49,0.21-2.23,0.2C190.55,134.74,191.42,126.57,197.25,124.78z"/>
	<path class="st5" d="M134.3,170.42c-3.82,4.75-7.24,9.82-10.23,15.13c-0.7,1.24-1.43,2.55-2.66,3.25c-2.98,1.7-7.81-0.68-9.67,2.21
		c-1.12,1.75-0.06,4.02,1,5.81c2.85,4.81,5.71,9.62,8.56,14.43c0.79,1.33,1.58,2.66,2.07,4.13c0.72,2.17,0.74,4.51,1.32,6.72
		c1.38,5.25,5.69,9.13,9.79,12.69c1.13,0.98,2.29,1.99,3.68,2.58c2.26,0.96,4.83,0.73,7.23,1.23c4.19,0.87,7.95,4.67,7.63,8.94
		c-0.14,1.82-0.96,3.63-0.51,5.4c0.56,2.19,2.88,3.44,5.05,4.07c2.18,0.63,4.55,0.97,6.29,2.41c1.54,1.28,2.4,3.3,4.1,4.36
		c2.8,1.76,6.4,0.23,9.42-1.11c7.53-3.35,15.62-5.4,23.83-6.06c4.99-0.4,10.6-0.54,14.02-4.19c0.49-0.53,0.94-1.14,1.08-1.85
		c0.49-2.38-2.35-4.03-4.75-4.44c-4.66-0.81-9.44-0.07-14.18-0.17c-9.78-0.21-19.43-4.16-26.54-10.87c-3.11-2.93-5.8-6.41-9.47-8.6
		c-6.92-4.14-15.95-2.97-23.12-6.64c-1.86-0.95-3.77-3.13-2.62-4.88c0.51-0.77,1.45-1.11,2.33-1.36c3.96-1.11,8.18-1.29,12.22-0.53
		c0.79,0.15,1.68,0.32,2.35-0.14c0.67-0.46,0.84-1.36,0.89-2.17c0.21-2.82-0.2-5.65-0.1-8.47c0.39-10.58,8.9-20.31,19.33-22.1
		c5.62-0.97,11.49,0.14,17.03-1.22c2.09-0.51,4.18-1.44,5.53-3.11c1.35-1.68,1.78-4.23,0.54-6c-1.56-2.25-4.79-2.32-7.31-3.37
		c-1.89-0.79-3.49-2.23-4.47-4.02c-0.5-0.91-0.94-2-1.91-2.35c-0.97-0.35-2.21,1.04-1.38,1.65c-2.76-1.92-5.25-4.23-7.37-6.84
		c-0.29,1.27-0.15,2.64,0.41,3.82c-1.26-1.54-3.05-2.64-5-3.05c0.31,0.99,0.62,1.97,0.94,2.96c-2.72-1.94-5.81-3.37-9.06-4.18
		c0.95,0.78,1.9,1.56,2.85,2.34c-3.03,0.3-6.05,0.6-9.08,0.9c0.62,1.11,1.6,2.01,2.75,2.53c-4.14-0.66-8.83-0.97-12.95-0.08
		c0.72,0.57,1.63,0.97,1.08,2.04c-0.48,0.92-1.54,1.01-2.41,1.3c-2.23,0.74-4.14,2.22-5.8,3.84
		C136.07,168.31,135.17,169.34,134.3,170.42z"/>
	<path class="st6" d="M197.17,144.12c0.67-2.94,1.16-6.27-0.51-8.76s-6.37-2.56-7.03,0.38c-0.93-2.35-1.87-4.69-2.8-7.04
		c-0.01,2.21-0.02,4.41-0.03,6.62c-1.36-1.6-3.03-3.13-5.1-3.38c-2.07-0.24-4.43,1.43-4.17,3.53c-0.49-1.34-0.99-2.69-1.48-4.03
		c1.1,2.85,1.79,5.87,2.05,8.92c-0.95-2.69-3.24-4.85-5.96-5.62c-0.17,1.71-0.88,3.36-1.99,4.66c-1.07-0.71-1.96-1.7-2.56-2.84
		c0.28,1.57,0.56,3.14,0.84,4.71c-3.12-1.36-6.49-2.12-9.89-2.23c-0.28,1.41-0.34,2.86-0.18,4.29c-0.64-1.49-1.45-2.9-2.41-4.2
		c0.33,1.35,0.66,2.7,0.99,4.05c-1.71-0.98-3.42-1.96-5.13-2.94c0.48,2.32,0.96,4.64,1.44,6.96c-3.55-3.74-8.41-6.17-13.5-6.76
		c1.83,2.73,3.46,5.59,4.88,8.56c-1.65-1.86-3.72-3.32-6-4.24c0.54,1.31,1.08,2.61,1.62,3.92c-2.93-1.95-6.41-3.04-9.91-3.09
		c0.18,1.4,0.79,2.74,1.74,3.77c-0.85-0.8-1.71-1.6-2.56-2.4c0.42,0.61,0.83,1.22,1.25,1.82c-2.51-1.11-5.29-1.58-8.02-1.33
		c0.24,1.2,0.85,2.32,1.71,3.17c-0.94-0.61-1.89-1.23-2.83-1.84c0.74,1.02,1.47,2.03,2.21,3.05c-2.96-1.03-6.28-0.97-9.21,0.18
		c0.77,1.44,1.89,2.69,3.23,3.61c-5.96,1.76-11.44,5.21-15.65,9.85c2.12-0.98,4.61-1.14,6.83-0.44c-1.87,2.59-4.34,4.74-7.16,6.21
		c1.6-0.05,3.2-0.1,4.8-0.14c-1.33,1.94-2.66,3.89-3.98,5.83c1.73-0.06,3.46-0.12,5.19-0.18c-1.48,2.28-2.96,4.57-4.44,6.85
		c2.03-0.63,4.05-1.26,6.08-1.9c0.57,1.9-1.95,4.17-0.64,5.65c1.09,1.23,3.01-0.13,4.03-1.42c2.48-3.15,4.94-6.31,7.39-9.48
		c-1.44,1.6-2.87,3.2-4.31,4.79c3.48-2.22,5.89-5.79,9.04-8.48c9.9-8.45,25.37-6.88,35.51-15.04c1.41-1.14,2.75-2.48,4.48-3.01
		c3.3-1.01,6.61,1.26,9.33,3.41c2.82,2.23,5.64,4.46,8.46,6.69c1.82,1.44,4.56,4.68,7.2,3.43c1.59-0.75,1.59-3.13,1.77-4.63
		c0.34-2.89,1.28-5.41,2.21-8.16C195.23,151.74,196.3,147.96,197.17,144.12z"/>
	<path class="st6" d="M205.91,170.7c0.15-3.33,2.43-5.77,4.78-6.81s4.89-1.12,7.24-2.14c1.94-0.84,3.71-2.29,5.68-2.99
		c2.38-0.84,4.9-0.52,7.37-0.2c3.69,0.48,7.54,1.04,10.68,3.76c2.78,2.42,4.77,6.36,7.71,8.41c4.46,3.1,9.78,1.09,14.48-0.98
		c-0.66,4.13,0.59,8.64,2.87,11.63c2.28,2.98,5.48,4.51,8.63,4.63c2.86,0.11,6.2-0.63,8.19,2.18c0.82,1.16,1.23,2.74,1.54,4.28
		c1.15,5.87,1.15,12,0.83,18.02c-0.56,10.75-2.45,22.28-8.56,29.11c8.82-10.2,20.83-15.28,32.53-13.75
		c-1.61,0.49-3.21,0.98-4.82,1.47c2.57-2.51,5.14-5.02,7.72-7.53c-2.93,0.3-5.85,0.59-8.78,0.89c2.09-1.73,4.19-3.46,6.28-5.19
		c-1.72-0.68-3.53-0.88-5.29-0.6c1.17-0.63,2.33-1.27,3.5-1.9c-0.76,0-1.51,0-2.27,0c1.15-1.6,2.3-3.2,3.45-4.8
		c-1.77-0.49-3.65-0.21-5.28,0.79c2.42-3.12,5.36-5.52,8.54-6.98c-3.64,1.59-7.29,3.18-10.93,4.77c1.68-2.06,3.17-4.39,4.43-6.94
		c-0.89,0.11-1.78,0.23-2.67,0.34c0.78-1.76,1.56-3.53,2.34-5.29c-1.01-0.58-2.19-0.61-3.2-0.08c0.86-1.53,1.71-3.07,2.57-4.6
		c-0.77-0.01-1.55-0.01-2.32-0.02c0.29-1.04,0.58-2.07,0.87-3.11c-1.24,0.45-2.48,0.91-3.72,1.36c0.41-1.56,0.83-3.11,1.24-4.67
		c-2.41,0.65-4.75,1.68-6.97,3.06c1.8-3.36,4.1-6.23,6.72-8.39c-3.52,2.01-7.27,3.31-11.09,3.83c0.89-2.42,1.78-4.84,2.66-7.25
		c-0.95-0.03-1.9-0.06-2.85-0.09c0.28-1.37,0.55-2.74,0.83-4.11c-1.26-0.93-2.81-1.09-4.15-0.44c0.74-2.01,1.77-3.82,3.01-5.3
		c-2.2,0.19-4.4,0.37-6.61,0.56c1.74-2.68,3.48-5.35,5.22-8.03c-2.99,1.61-5.98,3.23-8.97,4.84c0.69-2.24,1.37-4.49,2.06-6.73
		c-2.49,0.04-4.97,0.71-7.26,1.95c0.75-1.37,1.5-2.74,2.24-4.11c-0.9,0.44-1.79,0.88-2.69,1.32c0.55-1.17,0.91-2.51,1.06-3.89
		c-1.86,0.57-3.62,1.63-5.17,3.1c1.15-2.18,2.3-4.37,3.45-6.55c-2.56,2.02-5.13,4.04-7.69,6.06c2.08-3.7,4.56-7,7.34-9.76
		c-4.34,2.19-8.68,4.38-13.02,6.57c1.26-2.37,2.52-4.74,3.78-7.11c-1.21,0.57-2.43,1.14-3.64,1.7c0.92-1.02,1.47-2.61,1.46-4.22
		c-2.83,2.2-5.51,4.73-8.02,7.55c-1.83-1.04-3.86-1.42-5.82-1.09c-0.02-1.53-0.05-3.06-0.07-4.59c-3.21,1.41-6.27-2.47-9.19-4.9
		c-3.88-3.23-7.9-3.45-12.22-2.64c-1.93-4.58-4.7-7.84-8.71-8.45c-3.12-0.47-6.44,0.12-9.1,2.39c-2.33,1.99-3.92,5.18-4.42,8.86
		c-0.67,4.98,0.69,9.57,2.2,14.07C207.96,158.12,208.39,164.75,205.91,170.7z"/>
	<path class="st7" d="M213.99,198.1c16.15-3.67,32.42-7.35,48.97-7.86s33.6,2.37,47.73,11"/>
	<path class="st7" d="M302.7,234.34c-7.78-7.42-15.74-14.97-25.43-19.64c-4.9-2.37-10.14-3.94-15.41-5.3
		c-15.3-3.93-31.07-6.05-46.87-6.3c15.84-4.35,36.18-6.9,51.56-1.14"/>
	<path class="st7" d="M181.25,196.57c-29.1-11.66-64-7.54-89.59,10.58"/>
	<path class="st7" d="M171.46,200.24c-13.4-2.62-27.4-0.06-40.11,4.94s-24.33,12.34-35.87,19.63"/>
	<path class="st7" d="M177.3,190.82c-19.84-6.85-39.68-13.71-59.52-20.56"/>
	<path class="st8" d="M210.18,197.24c2.3,2.77,3.38,7.11,1.09,9.88c-1.26,1.52-3.51,2.85-3.02,4.76c0.51,2,3.29,1.96,5.35,2.07
		c2.46,0.14,4.86,1.18,6.64,2.88c0.82,0.79,1.53,1.71,2.46,2.37c2.33,1.64,5.51,1.24,8.23,0.38c2.76-0.87,5.46-2.19,7.42-4.32
		c1.96-2.13,3.06-5.19,2.34-7.99c-1.02-3.96-5.12-6.24-7.39-9.64c-1.65-2.47-2.3-5.5-3.91-8c-1.61-2.5-4.9-4.44-7.51-3.03
		c-0.41-0.94-0.04-2.01,0.02-3.03c0.06-1.02-0.52-2.31-1.54-2.21c-0.41,0.04-0.75,0.31-1.08,0.56c-1.33,1.05-2.65,2.1-3.98,3.14
		c-1.92-1.89-3.76-4.07-5.86-5.75c-0.98-0.78-1.79-0.64-2.32,0.5c-0.66,1.42-0.75,3.15-0.93,4.68c-0.23,1.96-0.77,4.08-0.46,6.04
		C206.19,193.42,208.43,195.12,210.18,197.24z"/>
	<path class="st8" d="M180.68,208.78c0,0.6-0.03,1.24-0.39,1.72c-0.4,0.56-1.12,0.77-1.78,0.97c-4.87,1.5-9.36,4.21-12.94,7.82
		c-1.92-1.46-4.77-1.12-6.69-2.57c-1.65-1.24-2.17-3.46-2.38-5.51c-1.14-11.31,4.69-23.03,14.4-28.94
		c3.08-1.88,6.88-3.21,10.27-1.96c1.91,0.71,2.16,2.06,2.17,3.93c0.01,2.02-0.06,4.07,0.05,6.09c0.57-1.44,1.01-2.94,2.72-1.83
		c0.79,0.51,2.01,1.83,1.44,2.86c-0.4,0.73-1.68,1.21-2.37,1.65c-0.98,0.62-1.96,1.28-2.74,2.15c-1.47,1.65-1.97,3.82-2.05,5.98
		C180.27,203.69,180.67,206.23,180.68,208.78z"/>
	<path class="st9" d="M241.83,217.32c2.01-0.04,4.32,0.29,5.43,1.97c1.12,1.71,0.4,4.11-1.04,5.56c-1.44,1.44-3.43,2.17-5.32,2.93
		c-7.24,2.89-14.08,6.74-20.51,11.15c-4.17,2.86-8.3,6.01-13.16,7.4c-7.24,2.07-14.93-0.06-22.15-2.18
		c-4.13-1.21-8.42-2.51-11.59-5.41c-2.87-2.63-4.58-6.36-7.48-8.96c-5.92-5.31-15.36-4.76-21.59-9.7c-1.03-0.81-2.01-1.92-1.97-3.23
		c0.08-2.41,3.19-3.25,5.6-3.41c7.61-0.5,16.2-0.67,21.72,4.6c5.69,5.42,6.09,14.85,11.95,20.09c2.31,2.06,5.27,3.26,8.29,3.92
		c8,1.74,18.05-0.35,24-6.26c1.88-1.87,3.05-4.27,4.62-6.38c2.42-3.25,5.58-5.98,9.07-8.02
		C231.97,218.89,236.86,217.42,241.83,217.32z"/>
	<path class="st10" d="M280.99,129.3c1.23-1.37,0.8-3.48,0.71-5.32c-0.22-4.43,1.99-8.72,5.06-11.92c3.07-3.2,6.96-5.49,10.82-7.68
		c0.93-0.53,1.89-1.06,2.95-1.14c2.11-0.17,4.01,1.58,4.65,3.6c0.64,2.02,0.28,4.21-0.29,6.25c-1.99,7.12-6.41,13.38-11.67,18.57
		c-5.26,5.2-11.37,9.44-17.45,13.65c-0.89,0.62-2.18,1.2-2.93,0.42c-0.97-1.02-0.69-3.63-0.6-4.91c0.09-1.24,0.21-2.54,0.57-3.73
		c0.59-2,2.28-3.57,3.78-4.93C277.89,130.97,279.84,130.58,280.99,129.3z"/>
	<path class="st10" d="M136.1,117.15c-0.24-2.69-2.07-5.18-4.02-7.5c-4.83-5.73-10.7-11.03-17.44-15.72
		c-5.34,2.95-6.24,8.27-6.73,13.02c-0.28,2.73-0.56,5.46-0.7,8.19c-0.31,6.06,0.23,12.95,6.77,17.49c7.12,4.95,14.35-0.87,17.9-5.35
		C134.24,124.28,136.41,120.65,136.1,117.15z"/>
	<path class="st11" d="M200.08,262.51c1.74,1.21,3.04,2.96,4.25,4.7c0.35,0.49,0.7,1.02,0.77,1.62c0.13,1.14-0.83,2.15-1.86,2.64
		c-1.04,0.49-2.21,0.66-3.24,1.18c-3.31,1.66-3.93,5.99-4.61,9.63c-0.95,5.09-3.03,10.3-7.25,13.31c0.67-2.43,1.34-4.91,1.3-7.43
		c-0.03-1.96-0.5-3.95-0.12-5.88c0.41-2.07,1.73-3.78,2.9-5.48c1.2-1.75,2.94-3.99,0.75-5.62c-1.48-1.1-3.03-2.44-3-4.46
		c0.03-1.93,1.53-3.9,3.13-4.86C195.3,260.52,198.05,261.1,200.08,262.51z"/>
	<path class="st11" d="M191.32,301.92c-0.6,1.26-1.17,2.66-0.79,4c0.1,0.34,0.26,0.68,0.54,0.9c0.81,0.64,1.99-0.01,2.76-0.7
		c1.61-1.44,3-3.13,4.1-4.98c1.25-2.09,2.36-4.6,4.65-5.45c0.87-0.32,1.83-0.36,2.71-0.64c2.53-0.82,4.02-3.69,3.85-6.35
		s-1.7-5.07-3.6-6.94c-1.77-1.75-4.59-3.16-6.65-1.76c-2.77,1.89-1.35,6.01-1.38,8.72c-0.02,1.33-0.16,2.73-0.79,3.92
		c-0.62,1.16-1.5,2.2-2.18,3.33C193.36,297.9,192.29,299.89,191.32,301.92z"/>
	<path class="st11" d="M210.14,304.58c0.84,0.56,1.61,1.47,1.45,2.46c-0.11,0.71-0.67,1.26-1.22,1.72c-1.99,1.66-4.3,2.89-6.46,4.32
		c-2.16,1.43-4.24,3.13-5.46,5.42s-1.41,5.27,0.1,7.38c1.92-1.73,3.15-4.14,5.16-5.76c1.92-1.55,4.4-2.24,6.5-3.53
		c5.1-3.12,7.24-9.54,4.43-14.92c-1.02-1.94-2.66-3.61-4.92-3.9c-2.38-0.3-5.37,0.96-6.86,2.82c-1.36,1.7,0.19,2.9,1.94,2.89
		C206.75,303.46,208.44,303.45,210.14,304.58z"/>
	<path class="st11" d="M214.81,283.77c1.52-2.76,3.99-4.99,6.89-6.24c0.36-0.15,0.74-0.3,1.02-0.58c0.67-0.67,0.48-1.85-0.1-2.6
		c-0.87-1.13-2.53-1.59-3.86-1.07c-1.74,0.68-2.75,2.75-4.57,3.16c-0.71,0.16-1.47,0.05-2.13,0.35c-1.33,0.6-1.47,2.4-1.36,3.86
		c0.2,2.66,0.61,5.3,1.21,7.9c0.33,1.41,0.78,2.91,1.95,3.77c0.54,0.4,1.2,0.64,1.62,1.16c0.86,1.1,0.19,2.85,0.97,4.02
		c0.67-0.75,0.03-1.94,0.19-2.93c0.15-0.93,1.05-1.62,1.98-1.75c0.94-0.13,1.88,0.21,2.69,0.7c3.88,2.35,4.78,7.5,5.29,12.01
		c2.22-4.89,0.34-10.57-1.56-15.6c-0.27-0.73-0.57-1.49-1.14-2.02c-1.63-1.52-4.6-0.48-6.27-1.96c-1.02-0.91-1.16-2.5-0.7-3.79
		s1.4-2.33,2.31-3.34"/>
	<path class="st11" d="M227.06,273.66c1.31,3.78,1.92,8.02,0.43,11.72c-0.65-0.41-0.64-1.34-0.61-2.11
		c0.15-5.16-2.63-9.96-5.9-13.96c-0.98-1.2-2.08-2.41-3.55-2.9c-1.47-0.49-3.38,0.01-3.95,1.45c-0.49,1.23,0.17,2.68,1.21,3.5
		c1.03,0.83,2.36,1.17,3.64,1.5c-2.83,0.81-5.77,1.21-8.71,1.18c-1.37-0.01-3.06-0.36-3.42-1.68c-0.25-0.91,0.28-1.83,0.83-2.59
		c2.49-3.39,6.05-6.14,10.03-7.55c1.43-0.5,3.89-1.28,5.18-0.07c1,0.93,1.17,2.74,1.66,3.95
		C224.92,268.64,226.16,271.08,227.06,273.66z"/>
	<path class="st12" d="M173.04,302.37c-1.54,1.48-3.22,2.89-5.19,3.73c-2.55,1.09-5.39,1.16-8.15,1.35
		c-7.68,0.52-15.3,2.02-22.6,4.47c1.47,5.51,2.93,11.02,4.4,16.53c0.28,1.04,0.66,2.2,1.64,2.63c1.43,0.62,2.89-0.73,3.89-1.93
		c6.35-7.67,13.58-14.62,21.51-20.66c2.67-2.04,5.43-3.98,7.85-6.31c4.89-4.72,8.14-10.93,9.79-17.49c0.24-0.94,0.44-1.9,0.62-2.86
		c0.12-0.65,0.45-1.62,0.28-2.26c-0.93,0.38-1.33,2.42-1.62,3.27c-0.61,1.79-1.32,3.54-2.13,5.24c-1.62,3.41-3.63,6.63-5.99,9.59
		C176,299.33,174.57,300.9,173.04,302.37z"/>
	<path class="st12" d="M241.16,301.22c5.95,6.77,14.59,10.4,22.88,13.93c1.09,0.47,2.23,0.97,2.95,1.92
		c1.63,2.14,0.31,5.18-1.03,7.51c-4.63-5.01-10.09-9.25-16.08-12.5c-5.78-3.13-12.61-5.91-15.07-12c-0.43-1.06-0.75-2.24-1.65-2.94
		c-0.9-0.69-2.61-0.35-2.66,0.79c-1.11-0.11-1.65-1.51-1.41-2.59c0.24-1.09,0.97-1.99,1.44-3c1.18-2.53,0.62-5.5,0.04-8.23
		c-0.46-2.16-0.92-4.33-1.38-6.49c-0.22-1.05-0.45-2.11-0.67-3.16c-0.16-0.74-0.63-1.88-0.48-2.62c1.35,0.32,1.78,3.49,2.09,4.55
		c0.63,2.14,1.24,4.29,1.9,6.43c1.31,4.24,2.79,8.45,4.93,12.35C238.16,297.33,239.54,299.37,241.16,301.22z"/>
	<path class="st13" d="M264.9,129.84c0.58,2.27,1.4,4.68,3.31,6.03c2.75,1.95,6.81,0.82,9.1-1.64c2.29-2.47,3.21-5.89,3.85-9.19
		s1.11-6.73,2.75-9.67c1.71-3.06,4.55-5.3,7.36-7.39c1.92-1.43,3.94-2.85,6.28-3.38c2.34-0.53,5.09,0.06,6.47,2.02
		c1.72,2.44,0.72,5.82-0.55,8.52c-3.52,7.51-8.72,14.23-15.09,19.53c-6.11,5.09-13.76,9.55-15.89,17.2
		c6.39-4.05,12.03-9.16,17.58-14.3c8.38-7.76,17.08-16.48,19.01-27.74c0.71-4.12-0.03-9.17-3.75-11.09
		c-2.55-1.31-5.64-0.68-8.4,0.12c-6.99,2.01-13.74,4.86-20.07,8.46c-3.21,1.82-6.3,3.83-9.27,6.02c-1.89,1.4-4.12,2.9-4.42,5.43
		c-0.16,1.39,0.11,2.84,0.32,4.21C263.85,125.29,264.32,127.58,264.9,129.84z"/>
	<path class="st13" d="M108.33,136.79c-2.29-3.65-4.42-7.45-5.7-11.56c-3.12-10.05-0.89-20.89,1.36-31.16
		c0.49-2.23,1.01-4.54,2.35-6.39s3.74-3.13,5.93-2.47c1.29,0.39,2.3,1.37,3.25,2.32c6.58,6.51,13.16,13.01,19.73,19.52
		c2.61,2.58,5.42,5.65,5.17,9.32c-0.15,2.22-1.42,4.18-2.65,6.04c-3.49,5.25-6.97,10.49-10.46,15.74c-0.19,0.29-0.45,0.61-0.79,0.6
		c-0.23-0.01-0.42-0.16-0.59-0.31c-3.55-2.98-7.11-5.95-10.66-8.93c2.81,0.25,5.62,0.49,8.42,0.74c-1.2-1.7-2.4-3.39-3.6-5.09
		c1.87,0.88,3.74,1.77,5.61,2.65c-0.46-2.74-1.7-5.34-3.54-7.43c1.17,1.11,2.54,2,4.02,2.64c-3.35-3.41-6.69-6.81-10.04-10.22
		c4.78,0.49,9.29,3.2,11.98,7.18c-1.32-1.56-2.27-3.43-2.76-5.42c2.03,0.72,3.99,1.64,5.84,2.74c-0.41-1.23,0.01-3.32,1.2-2.82
		c-4.63-7.26-11.57-13.02-19.56-16.24c-0.5-0.2-1.06-0.39-1.55-0.18c-0.47,0.2-0.73,0.7-0.94,1.16c-3.91,8.65-4.49,18.76-1.59,27.8
		c1.19,3.72,3.68,7.76,7.58,7.94c2.54,0.12,5.23-1.5,7.51-0.35c2.96,1.49,2.28,5.85,1.16,8.96c-0.7,1.94-1.19,4.26-2.23,6.03
		c-0.68,1.15-1.9,1.52-3.15,1.17c-1.57-0.44-2.63-1.67-3.59-2.91c-1.31-1.69-2.58-3.42-3.81-5.17c-0.68-0.96-1.34-1.94-1.99-2.92
		c-0.33-0.49-0.65-0.98-0.97-1.48C109.07,137.96,108.33,137.15,108.33,136.79z"/>
	<path class="st14" d="M192.18,192c-3.33-0.14-6.66,1.32-8.93,3.76c-2.27,2.44-3.49,5.78-3.51,9.11c-0.01,1.45,0.2,2.91,0.76,4.24
		c2.04,4.86,7.94,6.76,13.2,7.11c4.58,0.31,9.41-0.17,13.26-2.67s6.39-7.41,5.03-11.79c-0.54-1.74-1.64-3.27-2.9-4.59
		c-3.36-3.52-8.03-5.75-12.88-6.15c-4.85-0.4-9.82,1.04-13.71,3.96"/>
	<path class="st15" d="M173.88,221.66c4.16,5.46,8.87,11.28,15.55,12.82c5.36,1.24,10.98-0.59,15.85-3.14s9.35-5.87,14.44-7.97
		c1.34,0.76,0.42,2.8-0.6,3.95c-4.02,4.54-8.04,9.08-12.06,13.62c-0.98,1.11-2,2.24-3.32,2.9c-1.83,0.9-3.99,0.77-6.03,0.61
		c-4.09-0.32-8.36-0.7-11.81-2.92c-1.7-1.1-3.11-2.59-4.49-4.07c-4.28-4.56-8.76-9.53-9.65-15.71c2.25,1.1,4.21,2.78,5.65,4.84"/>
	<path class="st16" d="M230.78,167.43c1.85-0.6,3.92-0.9,5.72-0.15c1.79,0.75,3.09,2.57,3.21,4.52c0.12,1.94-0.93,3.91-2.62,4.89
		c-1.94,1.12-4.37,0.9-6.57,0.43c-1.47-0.31-2.96-0.74-4.15-1.65c-0.88-0.68-1.58-1.6-2.57-2.1c-0.55-0.27-1.18-0.31-1.77-0.18
		c0.66-0.35,1.15-1.09,1.69-1.6c0.67-0.62,1.38-1.19,2.12-1.71C227.36,168.83,229.03,168,230.78,167.43z"/>
	<path class="st16" d="M167.99,165.9c-2.44-0.99-5.35-1.14-7.63,0.16c-2.29,1.31-3.66,4.3-2.63,6.73c0.87,2.07,3.24,3.24,5.48,3.16
		c2.24-0.08,4.33-1.22,6.02-2.69c0.78-0.68,1.5-1.44,2.36-2.01c0.7-0.46,1.6-0.69,1.36-1.7
		C172.54,167.84,169.43,166.48,167.99,165.9z"/>
	<path class="st17" d="M167.31,165.91c0.64,1.78,1.29,3.56,1.93,5.35c1.24-0.79,1.76-2.53,1.16-3.86c-0.6-1.34-2.25-2.1-3.66-1.69
		c-0.34,0.56-0.35,1.31-0.02,1.88"/>
	<path class="st17" d="M193.22,194.87c-1.82,0.18-3.67,0.37-5.39,1c-1.72,0.63-3.33,1.76-4.15,3.4c-0.43,0.86-0.35,2.28,0.61,2.37
		c0.32,0.03,0.63-0.12,0.93-0.27c2.06-1.03,4.23-1.85,6.46-2.45c2.9-0.78,5.89-1.17,8.84-1.75c0.31-0.06,0.68-0.18,0.77-0.49
		c0.08-0.3-0.16-0.57-0.38-0.78c-1.21-1.12-2.65-2.05-4.26-2.38c-1.61-0.33-3.42,0.01-4.61,1.16"/>
	<path class="st18" d="M232.56,171.08c-0.53,0.1-1.1,0.23-1.45,0.64c-0.46,0.55-0.3,1.44,0.23,1.92s1.33,0.56,2.01,0.37
		c0.65-0.19,1.24-0.63,1.49-1.25c0.26-0.62,0.11-1.42-0.42-1.83c-0.62-0.48-1.51-0.34-2.27-0.12c-0.67,0.19-1.38,0.45-1.78,1.02"/>
	<path class="st18" d="M163.05,168.92c-0.42,0.14-0.76,0.47-0.96,0.87c-0.2,0.4-0.27,0.85-0.26,1.29c0.01,0.43,0.12,0.9,0.46,1.16
		c0.26,0.2,0.6,0.25,0.93,0.26c0.48,0.02,0.97-0.03,1.42-0.22c0.44-0.19,0.84-0.52,1.04-0.96c0.28-0.61,0.13-1.36-0.28-1.89
		c-0.41-0.53-1.05-0.84-1.71-0.95c-0.27-0.04-0.56-0.06-0.82,0.02c-0.52,0.14-0.91,0.56-1.26,0.96"/>
	<path class="st17" d="M232,168.59c-1.45,1.06-2.89,2.12-4.34,3.18c1.84,0.12,3.7-0.15,5.42-0.79c1-0.37,2.14-1.38,1.6-2.3
		c-1.86-0.78-4.23-0.02-5.3,1.68"/>
	<path class="st19" d="M207.66,222.1c0.43,0.04,0.89,0.09,1.19,0.38c0.54,0.53,0.18,1.4-0.2,2.05c-1.21,2.06-2.43,4.12-3.64,6.18
		c-0.74,1.25-1.49,2.51-2.54,3.53c-1.04,1-2.35,1.73-3.74,2.2c-3.83,1.3-8.35,0.56-11.51-1.9c-1.25-0.98-2.29-2.19-3.23-3.45
		c-1.92-2.59-4.11-7.22-0.03-9.05c1.75-0.79,3.76-0.76,5.65-0.75c2.82,0.02,5.65,0.09,8.47,0.21
		C201.29,221.64,204.48,221.84,207.66,222.1z"/>
	<path class="st20" d="M177.67,230.67c0.8-0.4,1.11-1.36,1.54-2.14c0.44-0.78,1.39-1.52,2.16-1.05c0.64,0.39,0.63,1.28,0.75,2.01
		c0.15,0.94,0.63,1.83,1.33,2.48c0.14,0.13,0.3,0.25,0.49,0.27c0.44,0.03,0.67-0.5,0.77-0.92c0.47-1.97,0.93-4.12,0.11-5.97
		c-0.46-1.04-1.27-1.87-2.14-2.6c-0.73-0.62-3.94-3.43-4.61-2.02c-0.36,0.76-0.49,1.85-0.66,2.66c-0.24,1.14-0.34,2.31-0.31,3.48
		C177.11,227.2,177.61,230.7,177.67,230.67z"/>
	<path class="st20" d="M204.76,235.22c0.79-1.59,1.58-3.18,2.38-4.76c0.21,0.94,0.64,1.82,1.24,2.57c0.34-1.67,1.01-3.27,1.96-4.68
		c-0.06,0.51-0.12,1.06,0.13,1.51c0.26,0.45,0.96,0.66,1.29,0.26c0.11-0.13,0.16-0.31,0.2-0.48c0.19-0.74,0.38-1.47,0.57-2.21
		c0.27-0.32,0.77-0.41,1.14-0.2c0.19,0.11,0.33,0.28,0.51,0.39c0.48,0.3,1.15,0.14,1.59-0.22c1.21-0.99,0.85-2.98-0.26-3.89
		c-1.36-1.11-3.41-0.82-4.96-0.3c-2.46,0.82-3.7,3.66-5.25,5.54c-0.33,0.4-0.82,0.84-0.94,1.36c-0.13,0.57,0.23,1.11,0.39,1.64
		C205.07,232.87,205.08,234.09,204.76,235.22z"/>
	<path class="st20" d="M197.94,266.45c1.72-1.94,3.74-4.03,6.34-4.12c0.18,1.42-1.28,2.45-2.54,3.12c-1.53,0.81-3.05,1.62-4.58,2.43
		c0.31-0.79,0.97-1.43,1.76-1.72"/>
	<path class="st20" d="M203.37,284.07c0.5-1.81,1.76-3.4,3.4-4.3c0.4-0.22,1.04-0.33,1.21,0.1c0.12,0.3-0.11,0.61-0.33,0.85
		c-1.52,1.66-3.11,3.26-4.75,4.8c-0.23-0.82,0.16-1.76,0.9-2.18"/>
	<path class="st20" d="M212.45,265.92c-1.93,0.37-3.82,0.94-5.63,1.71c-0.57,0.24-1.24,0.78-0.97,1.33
		c2.62,0.09,5.26-0.78,7.31-2.42c-0.11-0.37-0.62-0.56-0.94-0.34"/>
	<path class="st20" d="M214.23,280.18c-1.03,0.42-2.19,0.37-3.28,0.6c-1.09,0.24-2.24,0.94-2.36,2.05c1.98-0.28,3.93-0.75,5.82-1.41
		c0.19-0.07,0.4-0.15,0.5-0.33c0.18-0.33-0.18-0.75-0.56-0.77s-0.72,0.21-1.03,0.43"/>
	<path class="st20" d="M220.13,291.28c-2.05,0.55-3.89,1.84-5.1,3.59c1.18,0.45,2.4-0.48,3.32-1.33c0.82-0.76,1.65-1.53,2.47-2.29
		c-0.37-0.47-1.25-0.36-1.48,0.2"/>
	<path class="st20" d="M211.4,301.86c1.27-0.79,2.53-1.59,3.8-2.38c0.85,0.6,1.45,1.54,1.63,2.56c-1.91-0.76-4.19-0.5-5.88,0.67
		c0.07-0.63,0.46-1.23,1.01-1.55"/>
</g>
<g id="hjälm">
	<path class="st21" d="M317.39,261.46C332.34,238.08,341,210.3,341,180.5C341,97.38,273.62,30,190.5,30S40,97.38,40,180.5
		c0,35.83,12.53,68.74,33.44,94.58c11.52-6.4,23.63-11.76,36.13-16.07c66.44-22.92,140.4-16.97,207.79,2.47
		C317.37,261.47,317.38,261.46,317.39,261.46z"/>
	<path class="st22" d="M68.36,121.54c-4.95,12.31-9.56,24.99-10.5,38.22c-0.28,3.88,0.01,8.33,3.01,10.81
		c3.03,2.5,7.46,1.89,11.32,1.15c13.15-2.53,26.3-5.05,39.46-7.58c-1.66-16.11-1.66-32.39,0.01-48.5c0.9-8.72,2.33-17.51,5.89-25.52
		c6.32-14.21,18.81-24.84,25.95-38.66c-0.14,0.26-2.45,0.5-2.83,0.59c-0.98,0.22-1.95,0.47-2.91,0.74c-1.97,0.55-3.91,1.18-5.82,1.9
		c-3.83,1.44-7.41,3.29-11.01,5.21c-4.54,2.42-9.27,4.56-13.67,7.23c-4.39,2.67-8.19,6.13-11.86,9.69
		c-5.96,5.79-11,12.24-15.19,19.42c-4.19,7.18-7.56,14.79-10.7,22.47C69.11,119.66,68.73,120.6,68.36,121.54z"/>
	<path class="st22" d="M309.11,204.29c6.91-8.29,11.48-18.46,19.24-25.96c3.29,2.82,3.33,7.83,2.89,12.14
		c-0.81,8.09-2.31,16.11-4.49,23.95c-2.73,9.83-7.04,20.01-15.68,25.45c-2.35,1.48-5.01,2.56-7.78,2.66
		c-4.4,0.16-8.39-2.1-12.04-4.3c-3.2-1.92-6.99-3.71-8.13-7.58c-1.02-3.42,0.85-6.35,3.67-8.16c3.81-2.46,7.62-4.87,11.21-7.65
		C302.04,211.71,305.83,208.23,309.11,204.29z"/>
	<path class="st22" d="M318.19,122.8c-0.91-0.1-1.44,0.98-1.7,1.86c-5.36,18.08-10.73,36.16-16.09,54.24
		c-1.82,6.15-4.27,12.81-4.58,19.26c2.76-1.52,5.02-4.11,7.23-6.32c1.52-1.52,3.09-2.99,4.6-4.52c2.69-2.73,4.69-5.82,6.48-9.21
		c5.74-10.87,8.72-22.93,8.19-35.25C322.02,136.02,320.66,129.21,318.19,122.8z"/>
	<g>
		<path class="st23" d="M316.57,284.85c0-0.04,0-0.09,0-0.13c-0.32-0.47,0.38-22.31,0.44-22.72c0.16-1.13-3.48-2.51-4.74-2.98
			c-39.51-14.9-84.93-17.6-84.93-17.6c-11.78-0.94-23.6-1.66-35.41-1.35c-20.45,0.53-40.71,4.12-60.87,7.7
			c-13.19,2.34-26.49,4.85-39.03,9.82c-6.14,2.43-12.07,5.47-17.48,9.37c-3.74,2.7-7.29,5.49-8.84,10.09
			c-0.15,0.46-0.3,0.93-0.45,1.39c-0.01,0.06-0.02,0.13-0.03,0.19c-0.89,6.39-1.03,13.18-0.22,20.36
			c25.01-10.71,61.61-25.69,99.54-38.44c8.29-2.79,19.63-6.32,35.03-7.62c17.74-1.5,35.53,2.01,52.75,6.7
			c22.53,6.14,44.68,14.43,64.65,26.91C316.74,285.7,316.57,284.85,316.57,284.85z"/>
	</g>
	<path class="st22" d="M288.25,254.89c6.79,2.04,13.57,4.09,20.36,6.13c0.93,0.28,1.93,0.62,2.45,1.44c0.44,0.71,0.4,1.61,0.32,2.44
		c-0.41,4.23-1.48,8.4-3.18,12.3c-3.22-3.58-4.56-8.59-7.99-11.97c-1.78-1.75-4.01-2.95-6.24-4.06
		c-10.2-5.08-21.06-8.84-32.22-11.15c5.08,0.66,10.16,1.32,15.24,1.97"/>
	<path class="st22" d="M157.27,245.31c-2.26,2.62-5.81,3.64-9.17,4.51c-8.04,2.07-16.13,3.99-24.24,5.74
		c-0.57,0.12-1.37,0.1-1.47-0.47c-0.05-0.26,2.96-1.61,3.29-1.77c1.12-0.54,2.27-1.03,3.44-1.47c1.91-0.72,3.87-1.31,5.85-1.8
		c4.45-1.1,8.84-2.43,13.34-3.33C151.27,246.11,154.26,245.65,157.27,245.31z"/>
</g>
<g id="Lager_1" class="st24">
</g>
<g id="Lager_22">
</g>
<g id="Lager_20">
</g>
<g id="Lager_19">
</g>
<g id="Lager_15">
</g>
<g id="Lager_18">
</g>
<g id="Lager_24">
</g>
<g id="Lager_14">
</g>
<g id="Lager_23">
</g>
</svg>
