<?xml version="1.0" encoding="utf-8"?>
<!-- Generator: Adobe Illustrator 25.1.0, SVG Export Plug-In . SVG Version: 6.00 Build 0)  -->
<svg version="1.1" id="Lager_1" xmlns="http://www.w3.org/2000/svg" xmlns:xlink="http://www.w3.org/1999/xlink" x="0px" y="0px"
	 viewBox="0 0 1366 768" style="enable-background:new 0 0 1366 768;" xml:space="preserve">
<style type="text/css">
	.st0{fill:#B3E1E8;}
	.st1{fill:#A0DAE0;}
	.st2{fill:#85D0D3;}
	.st3{fill:#74C7D9;}
	.st4{fill:#FFFFFF;}
</style>
<circle class="st0" cx="672.41" cy="353.47" r="213.48"/>
<path class="st1" d="M639.83,142.66c-31.43,88.61-13.21,185.19,47.69,248.85c64.8,67.75,151.06,70.14,168.9,70.25
	c0,0-60.32,96.01-163.63,105.89c-84.79,8.11-144.63-39.57-159.28-52.08c-49.48-42.25-64.69-94.11-67.99-106.32
	c-16.92-62.61,0.74-113.61,7.11-131.2c6.03-16.65,19.54-52.65,54.79-84.75C571.22,153.41,620.7,144.93,639.83,142.66z"/>
<path class="st2" d="M545.96,181.46c0.25,14.03,5.18,156.55,124.29,236.14c78.45,52.42,160.57,46.91,186.16,44.16
	c0,0-60.32,96.01-163.63,105.89c-84.79,8.11-144.63-39.57-159.28-52.08c-49.48-42.25-64.69-94.11-67.99-106.32
	c-16.12-59.63-1.19-109.42,7.11-131.2C493.3,223.9,530.12,193.23,545.96,181.46z"/>
<path class="st3" d="M460.76,327.54c0,0,130.28,254.15,395.69,136.07c0,0-60.32,96.01-163.63,105.89
	c-84.79,8.11-144.63-39.57-159.28-52.08c-50.11-42.79-65.16-95.75-67.99-106.32C456.15,375.88,458.15,345.63,460.76,327.54z"/>
<circle class="st1" cx="598.5" cy="139.5" r="17.5"/>
<path class="st3" d="M557.14,530.35c-3.82,1.76-7.64,3.51-11.46,5.27c-0.92,0.42-1.92,0.93-2.28,1.88c-0.23,0.62-0.13,1.3-0.03,1.95
	c0.32,2.04,0.64,4.07,0.96,6.11c0.45,2.88,0.76,6.23-1.28,8.3c-1.09,1.11-2.7,1.64-3.65,2.87c-0.12,0.16-0.24,0.34-0.25,0.54
	c-0.03,0.49,0.58,0.81,1.06,0.72c0.49-0.08,0.89-0.41,1.33-0.64c1.08-0.57,2.37-0.51,3.58-0.71s2.53-0.86,2.76-2.06
	c0.12-0.59-0.06-1.2-0.21-1.79c-1.06-4.05-1.12-8.36-0.17-12.43c6.21-0.48,12.34-1.96,18.09-4.37"/>
<path class="st0" d="M876.47,408.12c7.41-2.68,14.93-5.08,22.53-7.19c1.55-0.43,3.41-0.79,4.62,0.27c0.69,0.6,0.99,1.52,1.26,2.39
	c0.87,2.81,1.73,5.62,2.6,8.42c0.79,2.55,2.07,5.55,4.72,5.92c1.28,0.18,2.58-0.35,3.86-0.16c1.28,0.2,2.43,1.85,1.48,2.73
	c-2.45-0.88-5.17-0.99-7.69-0.31c-1.09,0.3-2.26,0.74-3.32,0.35c-1.41-0.52-1.92-2.19-2.38-3.61c-1.25-3.88-3.41-7.47-6.26-10.38
	c-8.38,8.84-20.84,13.64-32.98,12.74"/>
<path class="st2" d="M483.24,259.23c-3.55-0.98-6.97-2.4-10.18-4.21c-1.3-0.73-2.62-1.6-3.23-2.96c-0.65-1.45-0.34-3.13-0.01-4.69
	c0.43-2.04,0.85-4.08,1.28-6.11c0.08-0.37,0.16-0.76,0.37-1.08c0.23-0.36,0.6-0.59,0.91-0.89c1.33-1.29,1.12-3.79-0.41-4.84
	c-1.52-1.05-3.94-0.35-4.67,1.35c-0.27,0.62-0.33,1.31-0.38,1.98c-0.42,4.93-0.83,9.85-1.25,14.78c-0.13,1.57-0.25,3.23,0.44,4.65
	c1.09,2.23,3.75,3.09,6.07,3.99c5.13,1.99,9.78,5.19,13.46,9.28"/>
<path class="st0" d="M790.36,183.05c1.67-4.63,5.44-8.12,8.59-11.89c3.16-3.78,5.9-8.57,4.88-13.39c2-0.39,3.82,1.61,4.03,3.64
	c0.21,2.03-0.69,3.98-1.57,5.82c-3.96,8.27-7.92,16.53-11.89,24.8"/>
<g>
	<circle class="st4" cx="603.5" cy="133.5" r="3.5"/>
</g>
<g>
	<circle class="st4" cx="587.5" cy="135.5" r="2.5"/>
</g>
<g>
	<circle class="st4" cx="605" cy="133" r="0.5"/>
	<path d="M605,132c-0.55,0-1,0.45-1,1s0.45,1,1,1s1-0.45,1-1S605.55,132,605,132L605,132z"/>
</g>
<g>
	<circle class="st4" cx="589" cy="135" r="0.5"/>
	<path d="M589,134c-0.55,0-1,0.45-1,1s0.45,1,1,1s1-0.45,1-1S589.55,134,589,134L589,134z"/>
</g>
</svg>
